G04 #@! TF.GenerationSoftware,KiCad,Pcbnew,(5.1.6)-1*
G04 #@! TF.CreationDate,2020-08-18T19:06:58+02:00*
G04 #@! TF.ProjectId,Penguino-Feather-4260-v1,50656e67-7569-46e6-9f2d-466561746865,1.1*
G04 #@! TF.SameCoordinates,Original*
G04 #@! TF.FileFunction,Paste,Top*
G04 #@! TF.FilePolarity,Positive*
%FSLAX46Y46*%
G04 Gerber Fmt 4.6, Leading zero omitted, Abs format (unit mm)*
G04 Created by KiCad (PCBNEW (5.1.6)-1) date 2020-08-18 19:06:58*
%MOMM*%
%LPD*%
G01*
G04 APERTURE LIST*
G04 #@! TA.AperFunction,Profile*
%ADD10C,0.150000*%
G04 #@! TD*
%ADD11R,1.200000X0.900000*%
%ADD12R,2.200000X1.050000*%
%ADD13R,1.050000X1.000000*%
%ADD14R,1.000000X0.800000*%
%ADD15R,2.400000X0.740000*%
%ADD16R,1.350000X4.700000*%
%ADD17R,1.500000X4.700000*%
%ADD18R,1.500000X4.400000*%
%ADD19R,1.060000X0.650000*%
%ADD20R,0.650000X0.400000*%
%ADD21R,0.800000X0.900000*%
%ADD22R,0.650000X1.060000*%
%ADD23R,0.300000X1.160000*%
%ADD24R,0.600000X1.160000*%
%ADD25R,0.660000X1.050000*%
%ADD26R,0.900000X0.800000*%
%ADD27R,1.300000X1.300000*%
G04 APERTURE END LIST*
D10*
X127000000Y-119380000D02*
G75*
G02*
X124460000Y-116840000I0J2540000D01*
G01*
X147320000Y-116840000D02*
G75*
G02*
X144780000Y-119380000I-2540000J0D01*
G01*
X144780000Y-68580000D02*
G75*
G02*
X147320000Y-71120000I0J-2540000D01*
G01*
X124460000Y-71120000D02*
G75*
G02*
X127000000Y-68580000I2540000J0D01*
G01*
X124460000Y-116840000D02*
X124460000Y-71120000D01*
X144780000Y-119380000D02*
X127000000Y-119380000D01*
X147320000Y-71120000D02*
X147320000Y-116840000D01*
X127000000Y-68580000D02*
X144780000Y-68580000D01*
G36*
G01*
X127277500Y-93385000D02*
X127622500Y-93385000D01*
G75*
G02*
X127770000Y-93532500I0J-147500D01*
G01*
X127770000Y-93827500D01*
G75*
G02*
X127622500Y-93975000I-147500J0D01*
G01*
X127277500Y-93975000D01*
G75*
G02*
X127130000Y-93827500I0J147500D01*
G01*
X127130000Y-93532500D01*
G75*
G02*
X127277500Y-93385000I147500J0D01*
G01*
G37*
G36*
G01*
X127277500Y-94355000D02*
X127622500Y-94355000D01*
G75*
G02*
X127770000Y-94502500I0J-147500D01*
G01*
X127770000Y-94797500D01*
G75*
G02*
X127622500Y-94945000I-147500J0D01*
G01*
X127277500Y-94945000D01*
G75*
G02*
X127130000Y-94797500I0J147500D01*
G01*
X127130000Y-94502500D01*
G75*
G02*
X127277500Y-94355000I147500J0D01*
G01*
G37*
D11*
X135800000Y-83850000D03*
X135800000Y-80550000D03*
D12*
X142235000Y-114515000D03*
D13*
X140710000Y-113040000D03*
D12*
X142235000Y-111565000D03*
G36*
G01*
X141100000Y-81250000D02*
X138100000Y-81250000D01*
G75*
G02*
X137850000Y-81000000I0J250000D01*
G01*
X137850000Y-80500000D01*
G75*
G02*
X138100000Y-80250000I250000J0D01*
G01*
X141100000Y-80250000D01*
G75*
G02*
X141350000Y-80500000I0J-250000D01*
G01*
X141350000Y-81000000D01*
G75*
G02*
X141100000Y-81250000I-250000J0D01*
G01*
G37*
G36*
G01*
X141100000Y-79250000D02*
X138100000Y-79250000D01*
G75*
G02*
X137850000Y-79000000I0J250000D01*
G01*
X137850000Y-78500000D01*
G75*
G02*
X138100000Y-78250000I250000J0D01*
G01*
X141100000Y-78250000D01*
G75*
G02*
X141350000Y-78500000I0J-250000D01*
G01*
X141350000Y-79000000D01*
G75*
G02*
X141100000Y-79250000I-250000J0D01*
G01*
G37*
G36*
G01*
X146800000Y-83850000D02*
X143900000Y-83850000D01*
G75*
G02*
X143650000Y-83600000I0J250000D01*
G01*
X143650000Y-82600000D01*
G75*
G02*
X143900000Y-82350000I250000J0D01*
G01*
X146800000Y-82350000D01*
G75*
G02*
X147050000Y-82600000I0J-250000D01*
G01*
X147050000Y-83600000D01*
G75*
G02*
X146800000Y-83850000I-250000J0D01*
G01*
G37*
G36*
G01*
X146800000Y-77150000D02*
X143900000Y-77150000D01*
G75*
G02*
X143650000Y-76900000I0J250000D01*
G01*
X143650000Y-75900000D01*
G75*
G02*
X143900000Y-75650000I250000J0D01*
G01*
X146800000Y-75650000D01*
G75*
G02*
X147050000Y-75900000I0J-250000D01*
G01*
X147050000Y-76900000D01*
G75*
G02*
X146800000Y-77150000I-250000J0D01*
G01*
G37*
G36*
G01*
X146315000Y-73953750D02*
X146315000Y-74466250D01*
G75*
G02*
X146096250Y-74685000I-218750J0D01*
G01*
X145658750Y-74685000D01*
G75*
G02*
X145440000Y-74466250I0J218750D01*
G01*
X145440000Y-73953750D01*
G75*
G02*
X145658750Y-73735000I218750J0D01*
G01*
X146096250Y-73735000D01*
G75*
G02*
X146315000Y-73953750I0J-218750D01*
G01*
G37*
G36*
G01*
X144740000Y-73953750D02*
X144740000Y-74466250D01*
G75*
G02*
X144521250Y-74685000I-218750J0D01*
G01*
X144083750Y-74685000D01*
G75*
G02*
X143865000Y-74466250I0J218750D01*
G01*
X143865000Y-73953750D01*
G75*
G02*
X144083750Y-73735000I218750J0D01*
G01*
X144521250Y-73735000D01*
G75*
G02*
X144740000Y-73953750I0J-218750D01*
G01*
G37*
G36*
G01*
X133525000Y-76343750D02*
X133525000Y-76856250D01*
G75*
G02*
X133306250Y-77075000I-218750J0D01*
G01*
X132868750Y-77075000D01*
G75*
G02*
X132650000Y-76856250I0J218750D01*
G01*
X132650000Y-76343750D01*
G75*
G02*
X132868750Y-76125000I218750J0D01*
G01*
X133306250Y-76125000D01*
G75*
G02*
X133525000Y-76343750I0J-218750D01*
G01*
G37*
G36*
G01*
X131950000Y-76343750D02*
X131950000Y-76856250D01*
G75*
G02*
X131731250Y-77075000I-218750J0D01*
G01*
X131293750Y-77075000D01*
G75*
G02*
X131075000Y-76856250I0J218750D01*
G01*
X131075000Y-76343750D01*
G75*
G02*
X131293750Y-76125000I218750J0D01*
G01*
X131731250Y-76125000D01*
G75*
G02*
X131950000Y-76343750I0J-218750D01*
G01*
G37*
G36*
G01*
X132650000Y-79756250D02*
X132650000Y-79243750D01*
G75*
G02*
X132868750Y-79025000I218750J0D01*
G01*
X133306250Y-79025000D01*
G75*
G02*
X133525000Y-79243750I0J-218750D01*
G01*
X133525000Y-79756250D01*
G75*
G02*
X133306250Y-79975000I-218750J0D01*
G01*
X132868750Y-79975000D01*
G75*
G02*
X132650000Y-79756250I0J218750D01*
G01*
G37*
G36*
G01*
X131075000Y-79756250D02*
X131075000Y-79243750D01*
G75*
G02*
X131293750Y-79025000I218750J0D01*
G01*
X131731250Y-79025000D01*
G75*
G02*
X131950000Y-79243750I0J-218750D01*
G01*
X131950000Y-79756250D01*
G75*
G02*
X131731250Y-79975000I-218750J0D01*
G01*
X131293750Y-79975000D01*
G75*
G02*
X131075000Y-79756250I0J218750D01*
G01*
G37*
G36*
G01*
X139843750Y-90350000D02*
X140356250Y-90350000D01*
G75*
G02*
X140575000Y-90568750I0J-218750D01*
G01*
X140575000Y-91006250D01*
G75*
G02*
X140356250Y-91225000I-218750J0D01*
G01*
X139843750Y-91225000D01*
G75*
G02*
X139625000Y-91006250I0J218750D01*
G01*
X139625000Y-90568750D01*
G75*
G02*
X139843750Y-90350000I218750J0D01*
G01*
G37*
G36*
G01*
X139843750Y-88775000D02*
X140356250Y-88775000D01*
G75*
G02*
X140575000Y-88993750I0J-218750D01*
G01*
X140575000Y-89431250D01*
G75*
G02*
X140356250Y-89650000I-218750J0D01*
G01*
X139843750Y-89650000D01*
G75*
G02*
X139625000Y-89431250I0J218750D01*
G01*
X139625000Y-88993750D01*
G75*
G02*
X139843750Y-88775000I218750J0D01*
G01*
G37*
G36*
G01*
X144015750Y-109011200D02*
X144528250Y-109011200D01*
G75*
G02*
X144747000Y-109229950I0J-218750D01*
G01*
X144747000Y-109667450D01*
G75*
G02*
X144528250Y-109886200I-218750J0D01*
G01*
X144015750Y-109886200D01*
G75*
G02*
X143797000Y-109667450I0J218750D01*
G01*
X143797000Y-109229950D01*
G75*
G02*
X144015750Y-109011200I218750J0D01*
G01*
G37*
G36*
G01*
X144015750Y-107436200D02*
X144528250Y-107436200D01*
G75*
G02*
X144747000Y-107654950I0J-218750D01*
G01*
X144747000Y-108092450D01*
G75*
G02*
X144528250Y-108311200I-218750J0D01*
G01*
X144015750Y-108311200D01*
G75*
G02*
X143797000Y-108092450I0J218750D01*
G01*
X143797000Y-107654950D01*
G75*
G02*
X144015750Y-107436200I218750J0D01*
G01*
G37*
G36*
G01*
X139650000Y-92906250D02*
X139650000Y-92393750D01*
G75*
G02*
X139868750Y-92175000I218750J0D01*
G01*
X140306250Y-92175000D01*
G75*
G02*
X140525000Y-92393750I0J-218750D01*
G01*
X140525000Y-92906250D01*
G75*
G02*
X140306250Y-93125000I-218750J0D01*
G01*
X139868750Y-93125000D01*
G75*
G02*
X139650000Y-92906250I0J218750D01*
G01*
G37*
G36*
G01*
X138075000Y-92906250D02*
X138075000Y-92393750D01*
G75*
G02*
X138293750Y-92175000I218750J0D01*
G01*
X138731250Y-92175000D01*
G75*
G02*
X138950000Y-92393750I0J-218750D01*
G01*
X138950000Y-92906250D01*
G75*
G02*
X138731250Y-93125000I-218750J0D01*
G01*
X138293750Y-93125000D01*
G75*
G02*
X138075000Y-92906250I0J218750D01*
G01*
G37*
G36*
G01*
X132526481Y-111415432D02*
X132770433Y-111171481D01*
G75*
G02*
X132979029Y-111171481I104298J-104298D01*
G01*
X133187625Y-111380077D01*
G75*
G02*
X133187625Y-111588673I-104298J-104298D01*
G01*
X132943673Y-111832625D01*
G75*
G02*
X132735077Y-111832625I-104298J104298D01*
G01*
X132526481Y-111624029D01*
G75*
G02*
X132526481Y-111415433I104298J104298D01*
G01*
G37*
G36*
G01*
X133212375Y-112101326D02*
X133456327Y-111857375D01*
G75*
G02*
X133664923Y-111857375I104298J-104298D01*
G01*
X133873519Y-112065971D01*
G75*
G02*
X133873519Y-112274567I-104298J-104298D01*
G01*
X133629567Y-112518519D01*
G75*
G02*
X133420971Y-112518519I-104298J104298D01*
G01*
X133212375Y-112309923D01*
G75*
G02*
X133212375Y-112101327I104298J104298D01*
G01*
G37*
G36*
G01*
X132185000Y-110502500D02*
X132185000Y-110847500D01*
G75*
G02*
X132037500Y-110995000I-147500J0D01*
G01*
X131742500Y-110995000D01*
G75*
G02*
X131595000Y-110847500I0J147500D01*
G01*
X131595000Y-110502500D01*
G75*
G02*
X131742500Y-110355000I147500J0D01*
G01*
X132037500Y-110355000D01*
G75*
G02*
X132185000Y-110502500I0J-147500D01*
G01*
G37*
G36*
G01*
X133155000Y-110502500D02*
X133155000Y-110847500D01*
G75*
G02*
X133007500Y-110995000I-147500J0D01*
G01*
X132712500Y-110995000D01*
G75*
G02*
X132565000Y-110847500I0J147500D01*
G01*
X132565000Y-110502500D01*
G75*
G02*
X132712500Y-110355000I147500J0D01*
G01*
X133007500Y-110355000D01*
G75*
G02*
X133155000Y-110502500I0J-147500D01*
G01*
G37*
G36*
G01*
X137575000Y-92393750D02*
X137575000Y-92906250D01*
G75*
G02*
X137356250Y-93125000I-218750J0D01*
G01*
X136918750Y-93125000D01*
G75*
G02*
X136700000Y-92906250I0J218750D01*
G01*
X136700000Y-92393750D01*
G75*
G02*
X136918750Y-92175000I218750J0D01*
G01*
X137356250Y-92175000D01*
G75*
G02*
X137575000Y-92393750I0J-218750D01*
G01*
G37*
G36*
G01*
X136000000Y-92393750D02*
X136000000Y-92906250D01*
G75*
G02*
X135781250Y-93125000I-218750J0D01*
G01*
X135343750Y-93125000D01*
G75*
G02*
X135125000Y-92906250I0J218750D01*
G01*
X135125000Y-92393750D01*
G75*
G02*
X135343750Y-92175000I218750J0D01*
G01*
X135781250Y-92175000D01*
G75*
G02*
X136000000Y-92393750I0J-218750D01*
G01*
G37*
G36*
G01*
X142293050Y-72548200D02*
X141780550Y-72548200D01*
G75*
G02*
X141561800Y-72329450I0J218750D01*
G01*
X141561800Y-71891950D01*
G75*
G02*
X141780550Y-71673200I218750J0D01*
G01*
X142293050Y-71673200D01*
G75*
G02*
X142511800Y-71891950I0J-218750D01*
G01*
X142511800Y-72329450D01*
G75*
G02*
X142293050Y-72548200I-218750J0D01*
G01*
G37*
G36*
G01*
X142293050Y-70973200D02*
X141780550Y-70973200D01*
G75*
G02*
X141561800Y-70754450I0J218750D01*
G01*
X141561800Y-70316950D01*
G75*
G02*
X141780550Y-70098200I218750J0D01*
G01*
X142293050Y-70098200D01*
G75*
G02*
X142511800Y-70316950I0J-218750D01*
G01*
X142511800Y-70754450D01*
G75*
G02*
X142293050Y-70973200I-218750J0D01*
G01*
G37*
D14*
X129528000Y-74718000D03*
X128028000Y-74718000D03*
X128028000Y-73618000D03*
X129528000Y-73618000D03*
G36*
G01*
X129956250Y-91200000D02*
X129443750Y-91200000D01*
G75*
G02*
X129225000Y-90981250I0J218750D01*
G01*
X129225000Y-90543750D01*
G75*
G02*
X129443750Y-90325000I218750J0D01*
G01*
X129956250Y-90325000D01*
G75*
G02*
X130175000Y-90543750I0J-218750D01*
G01*
X130175000Y-90981250D01*
G75*
G02*
X129956250Y-91200000I-218750J0D01*
G01*
G37*
G36*
G01*
X129956250Y-92775000D02*
X129443750Y-92775000D01*
G75*
G02*
X129225000Y-92556250I0J218750D01*
G01*
X129225000Y-92118750D01*
G75*
G02*
X129443750Y-91900000I218750J0D01*
G01*
X129956250Y-91900000D01*
G75*
G02*
X130175000Y-92118750I0J-218750D01*
G01*
X130175000Y-92556250D01*
G75*
G02*
X129956250Y-92775000I-218750J0D01*
G01*
G37*
G36*
G01*
X131075000Y-81656250D02*
X131075000Y-80743750D01*
G75*
G02*
X131318750Y-80500000I243750J0D01*
G01*
X131806250Y-80500000D01*
G75*
G02*
X132050000Y-80743750I0J-243750D01*
G01*
X132050000Y-81656250D01*
G75*
G02*
X131806250Y-81900000I-243750J0D01*
G01*
X131318750Y-81900000D01*
G75*
G02*
X131075000Y-81656250I0J243750D01*
G01*
G37*
G36*
G01*
X132950000Y-81656250D02*
X132950000Y-80743750D01*
G75*
G02*
X133193750Y-80500000I243750J0D01*
G01*
X133681250Y-80500000D01*
G75*
G02*
X133925000Y-80743750I0J-243750D01*
G01*
X133925000Y-81656250D01*
G75*
G02*
X133681250Y-81900000I-243750J0D01*
G01*
X133193750Y-81900000D01*
G75*
G02*
X132950000Y-81656250I0J243750D01*
G01*
G37*
G36*
G01*
X133525000Y-77793750D02*
X133525000Y-78306250D01*
G75*
G02*
X133306250Y-78525000I-218750J0D01*
G01*
X132868750Y-78525000D01*
G75*
G02*
X132650000Y-78306250I0J218750D01*
G01*
X132650000Y-77793750D01*
G75*
G02*
X132868750Y-77575000I218750J0D01*
G01*
X133306250Y-77575000D01*
G75*
G02*
X133525000Y-77793750I0J-218750D01*
G01*
G37*
G36*
G01*
X131950000Y-77793750D02*
X131950000Y-78306250D01*
G75*
G02*
X131731250Y-78525000I-218750J0D01*
G01*
X131293750Y-78525000D01*
G75*
G02*
X131075000Y-78306250I0J218750D01*
G01*
X131075000Y-77793750D01*
G75*
G02*
X131293750Y-77575000I218750J0D01*
G01*
X131731250Y-77575000D01*
G75*
G02*
X131950000Y-77793750I0J-218750D01*
G01*
G37*
D15*
X132300000Y-88890000D03*
X128400000Y-88890000D03*
X132300000Y-87620000D03*
X128400000Y-87620000D03*
X132300000Y-86350000D03*
X128400000Y-86350000D03*
X132300000Y-85080000D03*
X128400000Y-85080000D03*
X132300000Y-83810000D03*
X128400000Y-83810000D03*
D16*
X133065000Y-116990000D03*
D17*
X138715000Y-116990000D03*
D18*
X135890000Y-116967000D03*
G36*
G01*
X142052400Y-74310300D02*
X142052400Y-74655300D01*
G75*
G02*
X141904900Y-74802800I-147500J0D01*
G01*
X141609900Y-74802800D01*
G75*
G02*
X141462400Y-74655300I0J147500D01*
G01*
X141462400Y-74310300D01*
G75*
G02*
X141609900Y-74162800I147500J0D01*
G01*
X141904900Y-74162800D01*
G75*
G02*
X142052400Y-74310300I0J-147500D01*
G01*
G37*
G36*
G01*
X143022400Y-74310300D02*
X143022400Y-74655300D01*
G75*
G02*
X142874900Y-74802800I-147500J0D01*
G01*
X142579900Y-74802800D01*
G75*
G02*
X142432400Y-74655300I0J147500D01*
G01*
X142432400Y-74310300D01*
G75*
G02*
X142579900Y-74162800I147500J0D01*
G01*
X142874900Y-74162800D01*
G75*
G02*
X143022400Y-74310300I0J-147500D01*
G01*
G37*
G36*
G01*
X140172500Y-88180000D02*
X139827500Y-88180000D01*
G75*
G02*
X139680000Y-88032500I0J147500D01*
G01*
X139680000Y-87737500D01*
G75*
G02*
X139827500Y-87590000I147500J0D01*
G01*
X140172500Y-87590000D01*
G75*
G02*
X140320000Y-87737500I0J-147500D01*
G01*
X140320000Y-88032500D01*
G75*
G02*
X140172500Y-88180000I-147500J0D01*
G01*
G37*
G36*
G01*
X140172500Y-87210000D02*
X139827500Y-87210000D01*
G75*
G02*
X139680000Y-87062500I0J147500D01*
G01*
X139680000Y-86767500D01*
G75*
G02*
X139827500Y-86620000I147500J0D01*
G01*
X140172500Y-86620000D01*
G75*
G02*
X140320000Y-86767500I0J-147500D01*
G01*
X140320000Y-87062500D01*
G75*
G02*
X140172500Y-87210000I-147500J0D01*
G01*
G37*
G36*
G01*
X142052400Y-73294300D02*
X142052400Y-73639300D01*
G75*
G02*
X141904900Y-73786800I-147500J0D01*
G01*
X141609900Y-73786800D01*
G75*
G02*
X141462400Y-73639300I0J147500D01*
G01*
X141462400Y-73294300D01*
G75*
G02*
X141609900Y-73146800I147500J0D01*
G01*
X141904900Y-73146800D01*
G75*
G02*
X142052400Y-73294300I0J-147500D01*
G01*
G37*
G36*
G01*
X143022400Y-73294300D02*
X143022400Y-73639300D01*
G75*
G02*
X142874900Y-73786800I-147500J0D01*
G01*
X142579900Y-73786800D01*
G75*
G02*
X142432400Y-73639300I0J147500D01*
G01*
X142432400Y-73294300D01*
G75*
G02*
X142579900Y-73146800I147500J0D01*
G01*
X142874900Y-73146800D01*
G75*
G02*
X143022400Y-73294300I0J-147500D01*
G01*
G37*
G36*
G01*
X129477000Y-76027500D02*
X129477000Y-76372500D01*
G75*
G02*
X129329500Y-76520000I-147500J0D01*
G01*
X129034500Y-76520000D01*
G75*
G02*
X128887000Y-76372500I0J147500D01*
G01*
X128887000Y-76027500D01*
G75*
G02*
X129034500Y-75880000I147500J0D01*
G01*
X129329500Y-75880000D01*
G75*
G02*
X129477000Y-76027500I0J-147500D01*
G01*
G37*
G36*
G01*
X130447000Y-76027500D02*
X130447000Y-76372500D01*
G75*
G02*
X130299500Y-76520000I-147500J0D01*
G01*
X130004500Y-76520000D01*
G75*
G02*
X129857000Y-76372500I0J147500D01*
G01*
X129857000Y-76027500D01*
G75*
G02*
X130004500Y-75880000I147500J0D01*
G01*
X130299500Y-75880000D01*
G75*
G02*
X130447000Y-76027500I0J-147500D01*
G01*
G37*
G36*
G01*
X144497500Y-98250000D02*
X144842500Y-98250000D01*
G75*
G02*
X144990000Y-98397500I0J-147500D01*
G01*
X144990000Y-98692500D01*
G75*
G02*
X144842500Y-98840000I-147500J0D01*
G01*
X144497500Y-98840000D01*
G75*
G02*
X144350000Y-98692500I0J147500D01*
G01*
X144350000Y-98397500D01*
G75*
G02*
X144497500Y-98250000I147500J0D01*
G01*
G37*
G36*
G01*
X144497500Y-99220000D02*
X144842500Y-99220000D01*
G75*
G02*
X144990000Y-99367500I0J-147500D01*
G01*
X144990000Y-99662500D01*
G75*
G02*
X144842500Y-99810000I-147500J0D01*
G01*
X144497500Y-99810000D01*
G75*
G02*
X144350000Y-99662500I0J147500D01*
G01*
X144350000Y-99367500D01*
G75*
G02*
X144497500Y-99220000I147500J0D01*
G01*
G37*
G36*
G01*
X130093500Y-72281000D02*
X129748500Y-72281000D01*
G75*
G02*
X129601000Y-72133500I0J147500D01*
G01*
X129601000Y-71838500D01*
G75*
G02*
X129748500Y-71691000I147500J0D01*
G01*
X130093500Y-71691000D01*
G75*
G02*
X130241000Y-71838500I0J-147500D01*
G01*
X130241000Y-72133500D01*
G75*
G02*
X130093500Y-72281000I-147500J0D01*
G01*
G37*
G36*
G01*
X130093500Y-71311000D02*
X129748500Y-71311000D01*
G75*
G02*
X129601000Y-71163500I0J147500D01*
G01*
X129601000Y-70868500D01*
G75*
G02*
X129748500Y-70721000I147500J0D01*
G01*
X130093500Y-70721000D01*
G75*
G02*
X130241000Y-70868500I0J-147500D01*
G01*
X130241000Y-71163500D01*
G75*
G02*
X130093500Y-71311000I-147500J0D01*
G01*
G37*
G36*
G01*
X144477500Y-100695000D02*
X144822500Y-100695000D01*
G75*
G02*
X144970000Y-100842500I0J-147500D01*
G01*
X144970000Y-101137500D01*
G75*
G02*
X144822500Y-101285000I-147500J0D01*
G01*
X144477500Y-101285000D01*
G75*
G02*
X144330000Y-101137500I0J147500D01*
G01*
X144330000Y-100842500D01*
G75*
G02*
X144477500Y-100695000I147500J0D01*
G01*
G37*
G36*
G01*
X144477500Y-101665000D02*
X144822500Y-101665000D01*
G75*
G02*
X144970000Y-101812500I0J-147500D01*
G01*
X144970000Y-102107500D01*
G75*
G02*
X144822500Y-102255000I-147500J0D01*
G01*
X144477500Y-102255000D01*
G75*
G02*
X144330000Y-102107500I0J147500D01*
G01*
X144330000Y-101812500D01*
G75*
G02*
X144477500Y-101665000I147500J0D01*
G01*
G37*
G36*
G01*
X127965000Y-76372500D02*
X127965000Y-76027500D01*
G75*
G02*
X128112500Y-75880000I147500J0D01*
G01*
X128407500Y-75880000D01*
G75*
G02*
X128555000Y-76027500I0J-147500D01*
G01*
X128555000Y-76372500D01*
G75*
G02*
X128407500Y-76520000I-147500J0D01*
G01*
X128112500Y-76520000D01*
G75*
G02*
X127965000Y-76372500I0J147500D01*
G01*
G37*
G36*
G01*
X126995000Y-76372500D02*
X126995000Y-76027500D01*
G75*
G02*
X127142500Y-75880000I147500J0D01*
G01*
X127437500Y-75880000D01*
G75*
G02*
X127585000Y-76027500I0J-147500D01*
G01*
X127585000Y-76372500D01*
G75*
G02*
X127437500Y-76520000I-147500J0D01*
G01*
X127142500Y-76520000D01*
G75*
G02*
X126995000Y-76372500I0J147500D01*
G01*
G37*
G36*
G01*
X128572500Y-90885000D02*
X128227500Y-90885000D01*
G75*
G02*
X128080000Y-90737500I0J147500D01*
G01*
X128080000Y-90442500D01*
G75*
G02*
X128227500Y-90295000I147500J0D01*
G01*
X128572500Y-90295000D01*
G75*
G02*
X128720000Y-90442500I0J-147500D01*
G01*
X128720000Y-90737500D01*
G75*
G02*
X128572500Y-90885000I-147500J0D01*
G01*
G37*
G36*
G01*
X128572500Y-91855000D02*
X128227500Y-91855000D01*
G75*
G02*
X128080000Y-91707500I0J147500D01*
G01*
X128080000Y-91412500D01*
G75*
G02*
X128227500Y-91265000I147500J0D01*
G01*
X128572500Y-91265000D01*
G75*
G02*
X128720000Y-91412500I0J-147500D01*
G01*
X128720000Y-91707500D01*
G75*
G02*
X128572500Y-91855000I-147500J0D01*
G01*
G37*
G36*
G01*
X129190000Y-93972500D02*
X129190000Y-93627500D01*
G75*
G02*
X129337500Y-93480000I147500J0D01*
G01*
X129632500Y-93480000D01*
G75*
G02*
X129780000Y-93627500I0J-147500D01*
G01*
X129780000Y-93972500D01*
G75*
G02*
X129632500Y-94120000I-147500J0D01*
G01*
X129337500Y-94120000D01*
G75*
G02*
X129190000Y-93972500I0J147500D01*
G01*
G37*
G36*
G01*
X128220000Y-93972500D02*
X128220000Y-93627500D01*
G75*
G02*
X128367500Y-93480000I147500J0D01*
G01*
X128662500Y-93480000D01*
G75*
G02*
X128810000Y-93627500I0J-147500D01*
G01*
X128810000Y-93972500D01*
G75*
G02*
X128662500Y-94120000I-147500J0D01*
G01*
X128367500Y-94120000D01*
G75*
G02*
X128220000Y-93972500I0J147500D01*
G01*
G37*
G36*
G01*
X127622500Y-96880000D02*
X127277500Y-96880000D01*
G75*
G02*
X127130000Y-96732500I0J147500D01*
G01*
X127130000Y-96437500D01*
G75*
G02*
X127277500Y-96290000I147500J0D01*
G01*
X127622500Y-96290000D01*
G75*
G02*
X127770000Y-96437500I0J-147500D01*
G01*
X127770000Y-96732500D01*
G75*
G02*
X127622500Y-96880000I-147500J0D01*
G01*
G37*
G36*
G01*
X127622500Y-95910000D02*
X127277500Y-95910000D01*
G75*
G02*
X127130000Y-95762500I0J147500D01*
G01*
X127130000Y-95467500D01*
G75*
G02*
X127277500Y-95320000I147500J0D01*
G01*
X127622500Y-95320000D01*
G75*
G02*
X127770000Y-95467500I0J-147500D01*
G01*
X127770000Y-95762500D01*
G75*
G02*
X127622500Y-95910000I-147500J0D01*
G01*
G37*
G36*
G01*
X128680000Y-92402500D02*
X128680000Y-92747500D01*
G75*
G02*
X128532500Y-92895000I-147500J0D01*
G01*
X128237500Y-92895000D01*
G75*
G02*
X128090000Y-92747500I0J147500D01*
G01*
X128090000Y-92402500D01*
G75*
G02*
X128237500Y-92255000I147500J0D01*
G01*
X128532500Y-92255000D01*
G75*
G02*
X128680000Y-92402500I0J-147500D01*
G01*
G37*
G36*
G01*
X127710000Y-92402500D02*
X127710000Y-92747500D01*
G75*
G02*
X127562500Y-92895000I-147500J0D01*
G01*
X127267500Y-92895000D01*
G75*
G02*
X127120000Y-92747500I0J147500D01*
G01*
X127120000Y-92402500D01*
G75*
G02*
X127267500Y-92255000I147500J0D01*
G01*
X127562500Y-92255000D01*
G75*
G02*
X127710000Y-92402500I0J-147500D01*
G01*
G37*
G36*
G01*
X136504784Y-113216650D02*
X136504784Y-112871650D01*
G75*
G02*
X136652284Y-112724150I147500J0D01*
G01*
X136947284Y-112724150D01*
G75*
G02*
X137094784Y-112871650I0J-147500D01*
G01*
X137094784Y-113216650D01*
G75*
G02*
X136947284Y-113364150I-147500J0D01*
G01*
X136652284Y-113364150D01*
G75*
G02*
X136504784Y-113216650I0J147500D01*
G01*
G37*
G36*
G01*
X135534784Y-113216650D02*
X135534784Y-112871650D01*
G75*
G02*
X135682284Y-112724150I147500J0D01*
G01*
X135977284Y-112724150D01*
G75*
G02*
X136124784Y-112871650I0J-147500D01*
G01*
X136124784Y-113216650D01*
G75*
G02*
X135977284Y-113364150I-147500J0D01*
G01*
X135682284Y-113364150D01*
G75*
G02*
X135534784Y-113216650I0J147500D01*
G01*
G37*
G36*
G01*
X136035368Y-114276066D02*
X135690368Y-114276066D01*
G75*
G02*
X135542868Y-114128566I0J147500D01*
G01*
X135542868Y-113833566D01*
G75*
G02*
X135690368Y-113686066I147500J0D01*
G01*
X136035368Y-113686066D01*
G75*
G02*
X136182868Y-113833566I0J-147500D01*
G01*
X136182868Y-114128566D01*
G75*
G02*
X136035368Y-114276066I-147500J0D01*
G01*
G37*
G36*
G01*
X136035368Y-113306066D02*
X135690368Y-113306066D01*
G75*
G02*
X135542868Y-113158566I0J147500D01*
G01*
X135542868Y-112863566D01*
G75*
G02*
X135690368Y-112716066I147500J0D01*
G01*
X136035368Y-112716066D01*
G75*
G02*
X136182868Y-112863566I0J-147500D01*
G01*
X136182868Y-113158566D01*
G75*
G02*
X136035368Y-113306066I-147500J0D01*
G01*
G37*
D19*
X143850000Y-87300000D03*
X143850000Y-86350000D03*
X143850000Y-85400000D03*
X141650000Y-85400000D03*
X141650000Y-87300000D03*
D20*
X134850000Y-77550000D03*
X134850000Y-78850000D03*
X136750000Y-78200000D03*
X134850000Y-78200000D03*
X136750000Y-78850000D03*
X136750000Y-77550000D03*
D21*
X131450000Y-92750000D03*
X133350000Y-92750000D03*
X132400000Y-90750000D03*
D22*
X138300000Y-91100000D03*
X136400000Y-91100000D03*
X136400000Y-88900000D03*
X137350000Y-88900000D03*
X138300000Y-88900000D03*
D23*
X136640000Y-74392000D03*
X136140000Y-74392000D03*
X135640000Y-74392000D03*
X137640000Y-74392000D03*
X137140000Y-74392000D03*
X134640000Y-74392000D03*
X135140000Y-74392000D03*
X134140000Y-74392000D03*
D24*
X138290000Y-74392000D03*
X138290000Y-74392000D03*
X139090000Y-74392000D03*
X139090000Y-74392000D03*
X133490000Y-74392000D03*
X132690000Y-74392000D03*
X133490000Y-74392000D03*
X132690000Y-74392000D03*
D25*
X127708000Y-81831000D03*
X129848000Y-81831000D03*
X127708000Y-77681000D03*
X129848000Y-77681000D03*
G36*
G01*
X127227500Y-90295000D02*
X127572500Y-90295000D01*
G75*
G02*
X127720000Y-90442500I0J-147500D01*
G01*
X127720000Y-90737500D01*
G75*
G02*
X127572500Y-90885000I-147500J0D01*
G01*
X127227500Y-90885000D01*
G75*
G02*
X127080000Y-90737500I0J147500D01*
G01*
X127080000Y-90442500D01*
G75*
G02*
X127227500Y-90295000I147500J0D01*
G01*
G37*
G36*
G01*
X127227500Y-91265000D02*
X127572500Y-91265000D01*
G75*
G02*
X127720000Y-91412500I0J-147500D01*
G01*
X127720000Y-91707500D01*
G75*
G02*
X127572500Y-91855000I-147500J0D01*
G01*
X127227500Y-91855000D01*
G75*
G02*
X127080000Y-91707500I0J147500D01*
G01*
X127080000Y-91412500D01*
G75*
G02*
X127227500Y-91265000I147500J0D01*
G01*
G37*
G36*
G01*
X137543750Y-81825000D02*
X138056250Y-81825000D01*
G75*
G02*
X138275000Y-82043750I0J-218750D01*
G01*
X138275000Y-82481250D01*
G75*
G02*
X138056250Y-82700000I-218750J0D01*
G01*
X137543750Y-82700000D01*
G75*
G02*
X137325000Y-82481250I0J218750D01*
G01*
X137325000Y-82043750D01*
G75*
G02*
X137543750Y-81825000I218750J0D01*
G01*
G37*
G36*
G01*
X137543750Y-83400000D02*
X138056250Y-83400000D01*
G75*
G02*
X138275000Y-83618750I0J-218750D01*
G01*
X138275000Y-84056250D01*
G75*
G02*
X138056250Y-84275000I-218750J0D01*
G01*
X137543750Y-84275000D01*
G75*
G02*
X137325000Y-84056250I0J218750D01*
G01*
X137325000Y-83618750D01*
G75*
G02*
X137543750Y-83400000I218750J0D01*
G01*
G37*
D26*
X136400000Y-85400000D03*
X136400000Y-87300000D03*
X138400000Y-86350000D03*
G36*
G01*
X134627500Y-91090000D02*
X134972500Y-91090000D01*
G75*
G02*
X135120000Y-91237500I0J-147500D01*
G01*
X135120000Y-91532500D01*
G75*
G02*
X134972500Y-91680000I-147500J0D01*
G01*
X134627500Y-91680000D01*
G75*
G02*
X134480000Y-91532500I0J147500D01*
G01*
X134480000Y-91237500D01*
G75*
G02*
X134627500Y-91090000I147500J0D01*
G01*
G37*
G36*
G01*
X134627500Y-90120000D02*
X134972500Y-90120000D01*
G75*
G02*
X135120000Y-90267500I0J-147500D01*
G01*
X135120000Y-90562500D01*
G75*
G02*
X134972500Y-90710000I-147500J0D01*
G01*
X134627500Y-90710000D01*
G75*
G02*
X134480000Y-90562500I0J147500D01*
G01*
X134480000Y-90267500D01*
G75*
G02*
X134627500Y-90120000I147500J0D01*
G01*
G37*
G36*
G01*
X139827500Y-84720000D02*
X140172500Y-84720000D01*
G75*
G02*
X140320000Y-84867500I0J-147500D01*
G01*
X140320000Y-85162500D01*
G75*
G02*
X140172500Y-85310000I-147500J0D01*
G01*
X139827500Y-85310000D01*
G75*
G02*
X139680000Y-85162500I0J147500D01*
G01*
X139680000Y-84867500D01*
G75*
G02*
X139827500Y-84720000I147500J0D01*
G01*
G37*
G36*
G01*
X139827500Y-85690000D02*
X140172500Y-85690000D01*
G75*
G02*
X140320000Y-85837500I0J-147500D01*
G01*
X140320000Y-86132500D01*
G75*
G02*
X140172500Y-86280000I-147500J0D01*
G01*
X139827500Y-86280000D01*
G75*
G02*
X139680000Y-86132500I0J147500D01*
G01*
X139680000Y-85837500D01*
G75*
G02*
X139827500Y-85690000I147500J0D01*
G01*
G37*
D27*
X130180000Y-108711000D03*
X129420000Y-96271000D03*
X141740000Y-95501000D03*
X142370000Y-107951000D03*
G36*
G01*
X131845000Y-110076000D02*
X131495000Y-110076000D01*
G75*
G02*
X131320000Y-109901000I0J175000D01*
G01*
X131320000Y-109301000D01*
G75*
G02*
X131495000Y-109126000I175000J0D01*
G01*
X131845000Y-109126000D01*
G75*
G02*
X132020000Y-109301000I0J-175000D01*
G01*
X132020000Y-109901000D01*
G75*
G02*
X131845000Y-110076000I-175000J0D01*
G01*
G37*
G36*
G01*
X133045000Y-110076000D02*
X132695000Y-110076000D01*
G75*
G02*
X132520000Y-109901000I0J175000D01*
G01*
X132520000Y-109301000D01*
G75*
G02*
X132695000Y-109126000I175000J0D01*
G01*
X133045000Y-109126000D01*
G75*
G02*
X133220000Y-109301000I0J-175000D01*
G01*
X133220000Y-109901000D01*
G75*
G02*
X133045000Y-110076000I-175000J0D01*
G01*
G37*
G36*
G01*
X134245000Y-110076000D02*
X133895000Y-110076000D01*
G75*
G02*
X133720000Y-109901000I0J175000D01*
G01*
X133720000Y-109301000D01*
G75*
G02*
X133895000Y-109126000I175000J0D01*
G01*
X134245000Y-109126000D01*
G75*
G02*
X134420000Y-109301000I0J-175000D01*
G01*
X134420000Y-109901000D01*
G75*
G02*
X134245000Y-110076000I-175000J0D01*
G01*
G37*
G36*
G01*
X135445000Y-110076000D02*
X135095000Y-110076000D01*
G75*
G02*
X134920000Y-109901000I0J175000D01*
G01*
X134920000Y-109301000D01*
G75*
G02*
X135095000Y-109126000I175000J0D01*
G01*
X135445000Y-109126000D01*
G75*
G02*
X135620000Y-109301000I0J-175000D01*
G01*
X135620000Y-109901000D01*
G75*
G02*
X135445000Y-110076000I-175000J0D01*
G01*
G37*
G36*
G01*
X136645000Y-110076000D02*
X136295000Y-110076000D01*
G75*
G02*
X136120000Y-109901000I0J175000D01*
G01*
X136120000Y-109301000D01*
G75*
G02*
X136295000Y-109126000I175000J0D01*
G01*
X136645000Y-109126000D01*
G75*
G02*
X136820000Y-109301000I0J-175000D01*
G01*
X136820000Y-109901000D01*
G75*
G02*
X136645000Y-110076000I-175000J0D01*
G01*
G37*
G36*
G01*
X137845000Y-110076000D02*
X137495000Y-110076000D01*
G75*
G02*
X137320000Y-109901000I0J175000D01*
G01*
X137320000Y-109301000D01*
G75*
G02*
X137495000Y-109126000I175000J0D01*
G01*
X137845000Y-109126000D01*
G75*
G02*
X138020000Y-109301000I0J-175000D01*
G01*
X138020000Y-109901000D01*
G75*
G02*
X137845000Y-110076000I-175000J0D01*
G01*
G37*
G36*
G01*
X139045000Y-110076000D02*
X138695000Y-110076000D01*
G75*
G02*
X138520000Y-109901000I0J175000D01*
G01*
X138520000Y-109301000D01*
G75*
G02*
X138695000Y-109126000I175000J0D01*
G01*
X139045000Y-109126000D01*
G75*
G02*
X139220000Y-109301000I0J-175000D01*
G01*
X139220000Y-109901000D01*
G75*
G02*
X139045000Y-110076000I-175000J0D01*
G01*
G37*
G36*
G01*
X140245000Y-110076000D02*
X139895000Y-110076000D01*
G75*
G02*
X139720000Y-109901000I0J175000D01*
G01*
X139720000Y-109301000D01*
G75*
G02*
X139895000Y-109126000I175000J0D01*
G01*
X140245000Y-109126000D01*
G75*
G02*
X140420000Y-109301000I0J-175000D01*
G01*
X140420000Y-109901000D01*
G75*
G02*
X140245000Y-110076000I-175000J0D01*
G01*
G37*
G36*
G01*
X141445000Y-110076000D02*
X141095000Y-110076000D01*
G75*
G02*
X140920000Y-109901000I0J175000D01*
G01*
X140920000Y-109301000D01*
G75*
G02*
X141095000Y-109126000I175000J0D01*
G01*
X141445000Y-109126000D01*
G75*
G02*
X141620000Y-109301000I0J-175000D01*
G01*
X141620000Y-109901000D01*
G75*
G02*
X141445000Y-110076000I-175000J0D01*
G01*
G37*
G36*
G01*
X143865000Y-106126000D02*
X143865000Y-106476000D01*
G75*
G02*
X143690000Y-106651000I-175000J0D01*
G01*
X143090000Y-106651000D01*
G75*
G02*
X142915000Y-106476000I0J175000D01*
G01*
X142915000Y-106126000D01*
G75*
G02*
X143090000Y-105951000I175000J0D01*
G01*
X143690000Y-105951000D01*
G75*
G02*
X143865000Y-106126000I0J-175000D01*
G01*
G37*
G36*
G01*
X143865000Y-104926000D02*
X143865000Y-105276000D01*
G75*
G02*
X143690000Y-105451000I-175000J0D01*
G01*
X143090000Y-105451000D01*
G75*
G02*
X142915000Y-105276000I0J175000D01*
G01*
X142915000Y-104926000D01*
G75*
G02*
X143090000Y-104751000I175000J0D01*
G01*
X143690000Y-104751000D01*
G75*
G02*
X143865000Y-104926000I0J-175000D01*
G01*
G37*
G36*
G01*
X143865000Y-103726000D02*
X143865000Y-104076000D01*
G75*
G02*
X143690000Y-104251000I-175000J0D01*
G01*
X143090000Y-104251000D01*
G75*
G02*
X142915000Y-104076000I0J175000D01*
G01*
X142915000Y-103726000D01*
G75*
G02*
X143090000Y-103551000I175000J0D01*
G01*
X143690000Y-103551000D01*
G75*
G02*
X143865000Y-103726000I0J-175000D01*
G01*
G37*
G36*
G01*
X143865000Y-102526000D02*
X143865000Y-102876000D01*
G75*
G02*
X143690000Y-103051000I-175000J0D01*
G01*
X143090000Y-103051000D01*
G75*
G02*
X142915000Y-102876000I0J175000D01*
G01*
X142915000Y-102526000D01*
G75*
G02*
X143090000Y-102351000I175000J0D01*
G01*
X143690000Y-102351000D01*
G75*
G02*
X143865000Y-102526000I0J-175000D01*
G01*
G37*
G36*
G01*
X143865000Y-101326000D02*
X143865000Y-101676000D01*
G75*
G02*
X143690000Y-101851000I-175000J0D01*
G01*
X143090000Y-101851000D01*
G75*
G02*
X142915000Y-101676000I0J175000D01*
G01*
X142915000Y-101326000D01*
G75*
G02*
X143090000Y-101151000I175000J0D01*
G01*
X143690000Y-101151000D01*
G75*
G02*
X143865000Y-101326000I0J-175000D01*
G01*
G37*
G36*
G01*
X143865000Y-100126000D02*
X143865000Y-100476000D01*
G75*
G02*
X143690000Y-100651000I-175000J0D01*
G01*
X143090000Y-100651000D01*
G75*
G02*
X142915000Y-100476000I0J175000D01*
G01*
X142915000Y-100126000D01*
G75*
G02*
X143090000Y-99951000I175000J0D01*
G01*
X143690000Y-99951000D01*
G75*
G02*
X143865000Y-100126000I0J-175000D01*
G01*
G37*
G36*
G01*
X143865000Y-98926000D02*
X143865000Y-99276000D01*
G75*
G02*
X143690000Y-99451000I-175000J0D01*
G01*
X143090000Y-99451000D01*
G75*
G02*
X142915000Y-99276000I0J175000D01*
G01*
X142915000Y-98926000D01*
G75*
G02*
X143090000Y-98751000I175000J0D01*
G01*
X143690000Y-98751000D01*
G75*
G02*
X143865000Y-98926000I0J-175000D01*
G01*
G37*
G36*
G01*
X143865000Y-97726000D02*
X143865000Y-98076000D01*
G75*
G02*
X143690000Y-98251000I-175000J0D01*
G01*
X143090000Y-98251000D01*
G75*
G02*
X142915000Y-98076000I0J175000D01*
G01*
X142915000Y-97726000D01*
G75*
G02*
X143090000Y-97551000I175000J0D01*
G01*
X143690000Y-97551000D01*
G75*
G02*
X143865000Y-97726000I0J-175000D01*
G01*
G37*
G36*
G01*
X143865000Y-96526000D02*
X143865000Y-96876000D01*
G75*
G02*
X143690000Y-97051000I-175000J0D01*
G01*
X143090000Y-97051000D01*
G75*
G02*
X142915000Y-96876000I0J175000D01*
G01*
X142915000Y-96526000D01*
G75*
G02*
X143090000Y-96351000I175000J0D01*
G01*
X143690000Y-96351000D01*
G75*
G02*
X143865000Y-96526000I0J-175000D01*
G01*
G37*
G36*
G01*
X130365000Y-94126000D02*
X130715000Y-94126000D01*
G75*
G02*
X130890000Y-94301000I0J-175000D01*
G01*
X130890000Y-94901000D01*
G75*
G02*
X130715000Y-95076000I-175000J0D01*
G01*
X130365000Y-95076000D01*
G75*
G02*
X130190000Y-94901000I0J175000D01*
G01*
X130190000Y-94301000D01*
G75*
G02*
X130365000Y-94126000I175000J0D01*
G01*
G37*
G36*
G01*
X131565000Y-94126000D02*
X131915000Y-94126000D01*
G75*
G02*
X132090000Y-94301000I0J-175000D01*
G01*
X132090000Y-94901000D01*
G75*
G02*
X131915000Y-95076000I-175000J0D01*
G01*
X131565000Y-95076000D01*
G75*
G02*
X131390000Y-94901000I0J175000D01*
G01*
X131390000Y-94301000D01*
G75*
G02*
X131565000Y-94126000I175000J0D01*
G01*
G37*
G36*
G01*
X132765000Y-94126000D02*
X133115000Y-94126000D01*
G75*
G02*
X133290000Y-94301000I0J-175000D01*
G01*
X133290000Y-94901000D01*
G75*
G02*
X133115000Y-95076000I-175000J0D01*
G01*
X132765000Y-95076000D01*
G75*
G02*
X132590000Y-94901000I0J175000D01*
G01*
X132590000Y-94301000D01*
G75*
G02*
X132765000Y-94126000I175000J0D01*
G01*
G37*
G36*
G01*
X133965000Y-94126000D02*
X134315000Y-94126000D01*
G75*
G02*
X134490000Y-94301000I0J-175000D01*
G01*
X134490000Y-94901000D01*
G75*
G02*
X134315000Y-95076000I-175000J0D01*
G01*
X133965000Y-95076000D01*
G75*
G02*
X133790000Y-94901000I0J175000D01*
G01*
X133790000Y-94301000D01*
G75*
G02*
X133965000Y-94126000I175000J0D01*
G01*
G37*
G36*
G01*
X135165000Y-94126000D02*
X135515000Y-94126000D01*
G75*
G02*
X135690000Y-94301000I0J-175000D01*
G01*
X135690000Y-94901000D01*
G75*
G02*
X135515000Y-95076000I-175000J0D01*
G01*
X135165000Y-95076000D01*
G75*
G02*
X134990000Y-94901000I0J175000D01*
G01*
X134990000Y-94301000D01*
G75*
G02*
X135165000Y-94126000I175000J0D01*
G01*
G37*
G36*
G01*
X136365000Y-94126000D02*
X136715000Y-94126000D01*
G75*
G02*
X136890000Y-94301000I0J-175000D01*
G01*
X136890000Y-94901000D01*
G75*
G02*
X136715000Y-95076000I-175000J0D01*
G01*
X136365000Y-95076000D01*
G75*
G02*
X136190000Y-94901000I0J175000D01*
G01*
X136190000Y-94301000D01*
G75*
G02*
X136365000Y-94126000I175000J0D01*
G01*
G37*
G36*
G01*
X137565000Y-94126000D02*
X137915000Y-94126000D01*
G75*
G02*
X138090000Y-94301000I0J-175000D01*
G01*
X138090000Y-94901000D01*
G75*
G02*
X137915000Y-95076000I-175000J0D01*
G01*
X137565000Y-95076000D01*
G75*
G02*
X137390000Y-94901000I0J175000D01*
G01*
X137390000Y-94301000D01*
G75*
G02*
X137565000Y-94126000I175000J0D01*
G01*
G37*
G36*
G01*
X138765000Y-94126000D02*
X139115000Y-94126000D01*
G75*
G02*
X139290000Y-94301000I0J-175000D01*
G01*
X139290000Y-94901000D01*
G75*
G02*
X139115000Y-95076000I-175000J0D01*
G01*
X138765000Y-95076000D01*
G75*
G02*
X138590000Y-94901000I0J175000D01*
G01*
X138590000Y-94301000D01*
G75*
G02*
X138765000Y-94126000I175000J0D01*
G01*
G37*
G36*
G01*
X139965000Y-94126000D02*
X140315000Y-94126000D01*
G75*
G02*
X140490000Y-94301000I0J-175000D01*
G01*
X140490000Y-94901000D01*
G75*
G02*
X140315000Y-95076000I-175000J0D01*
G01*
X139965000Y-95076000D01*
G75*
G02*
X139790000Y-94901000I0J175000D01*
G01*
X139790000Y-94301000D01*
G75*
G02*
X139965000Y-94126000I175000J0D01*
G01*
G37*
G36*
G01*
X128865000Y-107466000D02*
X128865000Y-107816000D01*
G75*
G02*
X128690000Y-107991000I-175000J0D01*
G01*
X128090000Y-107991000D01*
G75*
G02*
X127915000Y-107816000I0J175000D01*
G01*
X127915000Y-107466000D01*
G75*
G02*
X128090000Y-107291000I175000J0D01*
G01*
X128690000Y-107291000D01*
G75*
G02*
X128865000Y-107466000I0J-175000D01*
G01*
G37*
G36*
G01*
X128865000Y-106266000D02*
X128865000Y-106616000D01*
G75*
G02*
X128690000Y-106791000I-175000J0D01*
G01*
X128090000Y-106791000D01*
G75*
G02*
X127915000Y-106616000I0J175000D01*
G01*
X127915000Y-106266000D01*
G75*
G02*
X128090000Y-106091000I175000J0D01*
G01*
X128690000Y-106091000D01*
G75*
G02*
X128865000Y-106266000I0J-175000D01*
G01*
G37*
G36*
G01*
X128865000Y-105066000D02*
X128865000Y-105416000D01*
G75*
G02*
X128690000Y-105591000I-175000J0D01*
G01*
X128090000Y-105591000D01*
G75*
G02*
X127915000Y-105416000I0J175000D01*
G01*
X127915000Y-105066000D01*
G75*
G02*
X128090000Y-104891000I175000J0D01*
G01*
X128690000Y-104891000D01*
G75*
G02*
X128865000Y-105066000I0J-175000D01*
G01*
G37*
G36*
G01*
X128865000Y-103866000D02*
X128865000Y-104216000D01*
G75*
G02*
X128690000Y-104391000I-175000J0D01*
G01*
X128090000Y-104391000D01*
G75*
G02*
X127915000Y-104216000I0J175000D01*
G01*
X127915000Y-103866000D01*
G75*
G02*
X128090000Y-103691000I175000J0D01*
G01*
X128690000Y-103691000D01*
G75*
G02*
X128865000Y-103866000I0J-175000D01*
G01*
G37*
G36*
G01*
X128865000Y-102666000D02*
X128865000Y-103016000D01*
G75*
G02*
X128690000Y-103191000I-175000J0D01*
G01*
X128090000Y-103191000D01*
G75*
G02*
X127915000Y-103016000I0J175000D01*
G01*
X127915000Y-102666000D01*
G75*
G02*
X128090000Y-102491000I175000J0D01*
G01*
X128690000Y-102491000D01*
G75*
G02*
X128865000Y-102666000I0J-175000D01*
G01*
G37*
G36*
G01*
X128865000Y-101466000D02*
X128865000Y-101816000D01*
G75*
G02*
X128690000Y-101991000I-175000J0D01*
G01*
X128090000Y-101991000D01*
G75*
G02*
X127915000Y-101816000I0J175000D01*
G01*
X127915000Y-101466000D01*
G75*
G02*
X128090000Y-101291000I175000J0D01*
G01*
X128690000Y-101291000D01*
G75*
G02*
X128865000Y-101466000I0J-175000D01*
G01*
G37*
G36*
G01*
X128865000Y-100266000D02*
X128865000Y-100616000D01*
G75*
G02*
X128690000Y-100791000I-175000J0D01*
G01*
X128090000Y-100791000D01*
G75*
G02*
X127915000Y-100616000I0J175000D01*
G01*
X127915000Y-100266000D01*
G75*
G02*
X128090000Y-100091000I175000J0D01*
G01*
X128690000Y-100091000D01*
G75*
G02*
X128865000Y-100266000I0J-175000D01*
G01*
G37*
G36*
G01*
X128865000Y-99066000D02*
X128865000Y-99416000D01*
G75*
G02*
X128690000Y-99591000I-175000J0D01*
G01*
X128090000Y-99591000D01*
G75*
G02*
X127915000Y-99416000I0J175000D01*
G01*
X127915000Y-99066000D01*
G75*
G02*
X128090000Y-98891000I175000J0D01*
G01*
X128690000Y-98891000D01*
G75*
G02*
X128865000Y-99066000I0J-175000D01*
G01*
G37*
G36*
G01*
X128865000Y-97866000D02*
X128865000Y-98216000D01*
G75*
G02*
X128690000Y-98391000I-175000J0D01*
G01*
X128090000Y-98391000D01*
G75*
G02*
X127915000Y-98216000I0J175000D01*
G01*
X127915000Y-97866000D01*
G75*
G02*
X128090000Y-97691000I175000J0D01*
G01*
X128690000Y-97691000D01*
G75*
G02*
X128865000Y-97866000I0J-175000D01*
G01*
G37*
D25*
X144270000Y-88745000D03*
X142130000Y-88745000D03*
X144270000Y-92895000D03*
X142130000Y-92895000D03*
G36*
G01*
X144487500Y-95700000D02*
X144832500Y-95700000D01*
G75*
G02*
X144980000Y-95847500I0J-147500D01*
G01*
X144980000Y-96142500D01*
G75*
G02*
X144832500Y-96290000I-147500J0D01*
G01*
X144487500Y-96290000D01*
G75*
G02*
X144340000Y-96142500I0J147500D01*
G01*
X144340000Y-95847500D01*
G75*
G02*
X144487500Y-95700000I147500J0D01*
G01*
G37*
G36*
G01*
X144487500Y-96670000D02*
X144832500Y-96670000D01*
G75*
G02*
X144980000Y-96817500I0J-147500D01*
G01*
X144980000Y-97112500D01*
G75*
G02*
X144832500Y-97260000I-147500J0D01*
G01*
X144487500Y-97260000D01*
G75*
G02*
X144340000Y-97112500I0J147500D01*
G01*
X144340000Y-96817500D01*
G75*
G02*
X144487500Y-96670000I147500J0D01*
G01*
G37*
G36*
G01*
X135033800Y-113304540D02*
X134688800Y-113304540D01*
G75*
G02*
X134541300Y-113157040I0J147500D01*
G01*
X134541300Y-112862040D01*
G75*
G02*
X134688800Y-112714540I147500J0D01*
G01*
X135033800Y-112714540D01*
G75*
G02*
X135181300Y-112862040I0J-147500D01*
G01*
X135181300Y-113157040D01*
G75*
G02*
X135033800Y-113304540I-147500J0D01*
G01*
G37*
G36*
G01*
X135033800Y-112334540D02*
X134688800Y-112334540D01*
G75*
G02*
X134541300Y-112187040I0J147500D01*
G01*
X134541300Y-111892040D01*
G75*
G02*
X134688800Y-111744540I147500J0D01*
G01*
X135033800Y-111744540D01*
G75*
G02*
X135181300Y-111892040I0J-147500D01*
G01*
X135181300Y-112187040D01*
G75*
G02*
X135033800Y-112334540I-147500J0D01*
G01*
G37*
M02*
