G04 #@! TF.GenerationSoftware,KiCad,Pcbnew,(5.1.6)-1*
G04 #@! TF.CreationDate,2020-08-18T19:06:58+02:00*
G04 #@! TF.ProjectId,Penguino-Feather-4260-v1,50656e67-7569-46e6-9f2d-466561746865,1.1*
G04 #@! TF.SameCoordinates,Original*
G04 #@! TF.FileFunction,Paste,Bot*
G04 #@! TF.FilePolarity,Positive*
%FSLAX46Y46*%
G04 Gerber Fmt 4.6, Leading zero omitted, Abs format (unit mm)*
G04 Created by KiCad (PCBNEW (5.1.6)-1) date 2020-08-18 19:06:58*
%MOMM*%
%LPD*%
G01*
G04 APERTURE LIST*
G04 #@! TA.AperFunction,Profile*
%ADD10C,0.150000*%
G04 #@! TD*
%ADD11R,1.350000X4.700000*%
%ADD12R,1.500000X4.700000*%
%ADD13R,0.300000X1.400000*%
G04 APERTURE END LIST*
D10*
X127000000Y-119380000D02*
G75*
G02*
X124460000Y-116840000I0J2540000D01*
G01*
X147320000Y-116840000D02*
G75*
G02*
X144780000Y-119380000I-2540000J0D01*
G01*
X144780000Y-68580000D02*
G75*
G02*
X147320000Y-71120000I0J-2540000D01*
G01*
X124460000Y-71120000D02*
G75*
G02*
X127000000Y-68580000I2540000J0D01*
G01*
X124460000Y-116840000D02*
X124460000Y-71120000D01*
X144780000Y-119380000D02*
X127000000Y-119380000D01*
X147320000Y-71120000D02*
X147320000Y-116840000D01*
X127000000Y-68580000D02*
X144780000Y-68580000D01*
D11*
X133065000Y-116990000D03*
D12*
X138715000Y-116990000D03*
G36*
G01*
X132440000Y-109655000D02*
X132440000Y-109355000D01*
G75*
G02*
X132590000Y-109205000I150000J0D01*
G01*
X134240000Y-109205000D01*
G75*
G02*
X134390000Y-109355000I0J-150000D01*
G01*
X134390000Y-109655000D01*
G75*
G02*
X134240000Y-109805000I-150000J0D01*
G01*
X132590000Y-109805000D01*
G75*
G02*
X132440000Y-109655000I0J150000D01*
G01*
G37*
G36*
G01*
X132440000Y-108385000D02*
X132440000Y-108085000D01*
G75*
G02*
X132590000Y-107935000I150000J0D01*
G01*
X134240000Y-107935000D01*
G75*
G02*
X134390000Y-108085000I0J-150000D01*
G01*
X134390000Y-108385000D01*
G75*
G02*
X134240000Y-108535000I-150000J0D01*
G01*
X132590000Y-108535000D01*
G75*
G02*
X132440000Y-108385000I0J150000D01*
G01*
G37*
G36*
G01*
X132440000Y-107115000D02*
X132440000Y-106815000D01*
G75*
G02*
X132590000Y-106665000I150000J0D01*
G01*
X134240000Y-106665000D01*
G75*
G02*
X134390000Y-106815000I0J-150000D01*
G01*
X134390000Y-107115000D01*
G75*
G02*
X134240000Y-107265000I-150000J0D01*
G01*
X132590000Y-107265000D01*
G75*
G02*
X132440000Y-107115000I0J150000D01*
G01*
G37*
G36*
G01*
X132440000Y-105845000D02*
X132440000Y-105545000D01*
G75*
G02*
X132590000Y-105395000I150000J0D01*
G01*
X134240000Y-105395000D01*
G75*
G02*
X134390000Y-105545000I0J-150000D01*
G01*
X134390000Y-105845000D01*
G75*
G02*
X134240000Y-105995000I-150000J0D01*
G01*
X132590000Y-105995000D01*
G75*
G02*
X132440000Y-105845000I0J150000D01*
G01*
G37*
G36*
G01*
X137390000Y-105845000D02*
X137390000Y-105545000D01*
G75*
G02*
X137540000Y-105395000I150000J0D01*
G01*
X139190000Y-105395000D01*
G75*
G02*
X139340000Y-105545000I0J-150000D01*
G01*
X139340000Y-105845000D01*
G75*
G02*
X139190000Y-105995000I-150000J0D01*
G01*
X137540000Y-105995000D01*
G75*
G02*
X137390000Y-105845000I0J150000D01*
G01*
G37*
G36*
G01*
X137390000Y-107115000D02*
X137390000Y-106815000D01*
G75*
G02*
X137540000Y-106665000I150000J0D01*
G01*
X139190000Y-106665000D01*
G75*
G02*
X139340000Y-106815000I0J-150000D01*
G01*
X139340000Y-107115000D01*
G75*
G02*
X139190000Y-107265000I-150000J0D01*
G01*
X137540000Y-107265000D01*
G75*
G02*
X137390000Y-107115000I0J150000D01*
G01*
G37*
G36*
G01*
X137390000Y-108385000D02*
X137390000Y-108085000D01*
G75*
G02*
X137540000Y-107935000I150000J0D01*
G01*
X139190000Y-107935000D01*
G75*
G02*
X139340000Y-108085000I0J-150000D01*
G01*
X139340000Y-108385000D01*
G75*
G02*
X139190000Y-108535000I-150000J0D01*
G01*
X137540000Y-108535000D01*
G75*
G02*
X137390000Y-108385000I0J150000D01*
G01*
G37*
G36*
G01*
X137390000Y-109655000D02*
X137390000Y-109355000D01*
G75*
G02*
X137540000Y-109205000I150000J0D01*
G01*
X139190000Y-109205000D01*
G75*
G02*
X139340000Y-109355000I0J-150000D01*
G01*
X139340000Y-109655000D01*
G75*
G02*
X139190000Y-109805000I-150000J0D01*
G01*
X137540000Y-109805000D01*
G75*
G02*
X137390000Y-109655000I0J150000D01*
G01*
G37*
G36*
G01*
X131600000Y-103855000D02*
X131600000Y-103555000D01*
G75*
G02*
X131750000Y-103405000I150000J0D01*
G01*
X133050000Y-103405000D01*
G75*
G02*
X133200000Y-103555000I0J-150000D01*
G01*
X133200000Y-103855000D01*
G75*
G02*
X133050000Y-104005000I-150000J0D01*
G01*
X131750000Y-104005000D01*
G75*
G02*
X131600000Y-103855000I0J150000D01*
G01*
G37*
G36*
G01*
X131600000Y-102585000D02*
X131600000Y-102285000D01*
G75*
G02*
X131750000Y-102135000I150000J0D01*
G01*
X133050000Y-102135000D01*
G75*
G02*
X133200000Y-102285000I0J-150000D01*
G01*
X133200000Y-102585000D01*
G75*
G02*
X133050000Y-102735000I-150000J0D01*
G01*
X131750000Y-102735000D01*
G75*
G02*
X131600000Y-102585000I0J150000D01*
G01*
G37*
G36*
G01*
X131600000Y-101315000D02*
X131600000Y-101015000D01*
G75*
G02*
X131750000Y-100865000I150000J0D01*
G01*
X133050000Y-100865000D01*
G75*
G02*
X133200000Y-101015000I0J-150000D01*
G01*
X133200000Y-101315000D01*
G75*
G02*
X133050000Y-101465000I-150000J0D01*
G01*
X131750000Y-101465000D01*
G75*
G02*
X131600000Y-101315000I0J150000D01*
G01*
G37*
G36*
G01*
X131600000Y-100045000D02*
X131600000Y-99745000D01*
G75*
G02*
X131750000Y-99595000I150000J0D01*
G01*
X133050000Y-99595000D01*
G75*
G02*
X133200000Y-99745000I0J-150000D01*
G01*
X133200000Y-100045000D01*
G75*
G02*
X133050000Y-100195000I-150000J0D01*
G01*
X131750000Y-100195000D01*
G75*
G02*
X131600000Y-100045000I0J150000D01*
G01*
G37*
G36*
G01*
X138800000Y-100045000D02*
X138800000Y-99745000D01*
G75*
G02*
X138950000Y-99595000I150000J0D01*
G01*
X140250000Y-99595000D01*
G75*
G02*
X140400000Y-99745000I0J-150000D01*
G01*
X140400000Y-100045000D01*
G75*
G02*
X140250000Y-100195000I-150000J0D01*
G01*
X138950000Y-100195000D01*
G75*
G02*
X138800000Y-100045000I0J150000D01*
G01*
G37*
G36*
G01*
X138800000Y-101315000D02*
X138800000Y-101015000D01*
G75*
G02*
X138950000Y-100865000I150000J0D01*
G01*
X140250000Y-100865000D01*
G75*
G02*
X140400000Y-101015000I0J-150000D01*
G01*
X140400000Y-101315000D01*
G75*
G02*
X140250000Y-101465000I-150000J0D01*
G01*
X138950000Y-101465000D01*
G75*
G02*
X138800000Y-101315000I0J150000D01*
G01*
G37*
G36*
G01*
X138800000Y-102585000D02*
X138800000Y-102285000D01*
G75*
G02*
X138950000Y-102135000I150000J0D01*
G01*
X140250000Y-102135000D01*
G75*
G02*
X140400000Y-102285000I0J-150000D01*
G01*
X140400000Y-102585000D01*
G75*
G02*
X140250000Y-102735000I-150000J0D01*
G01*
X138950000Y-102735000D01*
G75*
G02*
X138800000Y-102585000I0J150000D01*
G01*
G37*
G36*
G01*
X138800000Y-103855000D02*
X138800000Y-103555000D01*
G75*
G02*
X138950000Y-103405000I150000J0D01*
G01*
X140250000Y-103405000D01*
G75*
G02*
X140400000Y-103555000I0J-150000D01*
G01*
X140400000Y-103855000D01*
G75*
G02*
X140250000Y-104005000I-150000J0D01*
G01*
X138950000Y-104005000D01*
G75*
G02*
X138800000Y-103855000I0J150000D01*
G01*
G37*
G36*
G01*
X143507750Y-78277000D02*
X144020250Y-78277000D01*
G75*
G02*
X144239000Y-78495750I0J-218750D01*
G01*
X144239000Y-78933250D01*
G75*
G02*
X144020250Y-79152000I-218750J0D01*
G01*
X143507750Y-79152000D01*
G75*
G02*
X143289000Y-78933250I0J218750D01*
G01*
X143289000Y-78495750D01*
G75*
G02*
X143507750Y-78277000I218750J0D01*
G01*
G37*
G36*
G01*
X143507750Y-79852000D02*
X144020250Y-79852000D01*
G75*
G02*
X144239000Y-80070750I0J-218750D01*
G01*
X144239000Y-80508250D01*
G75*
G02*
X144020250Y-80727000I-218750J0D01*
G01*
X143507750Y-80727000D01*
G75*
G02*
X143289000Y-80508250I0J218750D01*
G01*
X143289000Y-80070750D01*
G75*
G02*
X143507750Y-79852000I218750J0D01*
G01*
G37*
D13*
X140605000Y-77302000D03*
X141105000Y-77302000D03*
X141605000Y-77302000D03*
X142105000Y-77302000D03*
X142605000Y-77302000D03*
X142605000Y-81702000D03*
X142105000Y-81702000D03*
X141605000Y-81702000D03*
X141105000Y-81702000D03*
X140605000Y-81702000D03*
M02*
