G04 #@! TF.GenerationSoftware,KiCad,Pcbnew,(5.1.6)-1*
G04 #@! TF.CreationDate,2020-08-18T19:06:58+02:00*
G04 #@! TF.ProjectId,Penguino-Feather-4260-v1,50656e67-7569-46e6-9f2d-466561746865,1.1*
G04 #@! TF.SameCoordinates,Original*
G04 #@! TF.FileFunction,Soldermask,Bot*
G04 #@! TF.FilePolarity,Negative*
%FSLAX46Y46*%
G04 Gerber Fmt 4.6, Leading zero omitted, Abs format (unit mm)*
G04 Created by KiCad (PCBNEW (5.1.6)-1) date 2020-08-18 19:06:58*
%MOMM*%
%LPD*%
G01*
G04 APERTURE LIST*
G04 #@! TA.AperFunction,Profile*
%ADD10C,0.150000*%
G04 #@! TD*
%ADD11C,0.100000*%
G04 APERTURE END LIST*
D10*
X127000000Y-119380000D02*
G75*
G02*
X124460000Y-116840000I0J2540000D01*
G01*
X147320000Y-116840000D02*
G75*
G02*
X144780000Y-119380000I-2540000J0D01*
G01*
X144780000Y-68580000D02*
G75*
G02*
X147320000Y-71120000I0J-2540000D01*
G01*
X124460000Y-71120000D02*
G75*
G02*
X127000000Y-68580000I2540000J0D01*
G01*
X124460000Y-116840000D02*
X124460000Y-71120000D01*
X144780000Y-119380000D02*
X127000000Y-119380000D01*
X147320000Y-71120000D02*
X147320000Y-116840000D01*
X127000000Y-68580000D02*
X144780000Y-68580000D01*
D11*
G36*
X139516000Y-119391000D02*
G01*
X137914000Y-119391000D01*
X137914000Y-114589000D01*
X139516000Y-114589000D01*
X139516000Y-119391000D01*
G37*
G36*
X133791000Y-119391000D02*
G01*
X132339000Y-119391000D01*
X132339000Y-114589000D01*
X133791000Y-114589000D01*
X133791000Y-119391000D01*
G37*
G36*
X127257715Y-115544383D02*
G01*
X127385322Y-115569765D01*
X127526148Y-115628097D01*
X127625727Y-115669344D01*
X127625728Y-115669345D01*
X127842089Y-115813912D01*
X128026088Y-115997911D01*
X128122685Y-116142479D01*
X128170656Y-116214273D01*
X128211903Y-116313852D01*
X128270235Y-116454678D01*
X128321000Y-116709893D01*
X128321000Y-116970107D01*
X128270235Y-117225322D01*
X128211903Y-117366148D01*
X128170656Y-117465727D01*
X128170655Y-117465728D01*
X128026088Y-117682089D01*
X127842089Y-117866088D01*
X127697521Y-117962685D01*
X127625727Y-118010656D01*
X127526148Y-118051903D01*
X127385322Y-118110235D01*
X127257715Y-118135617D01*
X127130109Y-118161000D01*
X126869891Y-118161000D01*
X126742285Y-118135617D01*
X126614678Y-118110235D01*
X126473852Y-118051903D01*
X126374273Y-118010656D01*
X126302479Y-117962685D01*
X126157911Y-117866088D01*
X125973912Y-117682089D01*
X125829345Y-117465728D01*
X125829344Y-117465727D01*
X125788097Y-117366148D01*
X125729765Y-117225322D01*
X125679000Y-116970107D01*
X125679000Y-116709893D01*
X125729765Y-116454678D01*
X125788097Y-116313852D01*
X125829344Y-116214273D01*
X125877315Y-116142479D01*
X125973912Y-115997911D01*
X126157911Y-115813912D01*
X126374272Y-115669345D01*
X126374273Y-115669344D01*
X126473852Y-115628097D01*
X126614678Y-115569765D01*
X126742285Y-115544383D01*
X126869891Y-115519000D01*
X127130109Y-115519000D01*
X127257715Y-115544383D01*
G37*
G36*
X145037715Y-115544383D02*
G01*
X145165322Y-115569765D01*
X145306148Y-115628097D01*
X145405727Y-115669344D01*
X145405728Y-115669345D01*
X145622089Y-115813912D01*
X145806088Y-115997911D01*
X145902685Y-116142479D01*
X145950656Y-116214273D01*
X145991903Y-116313852D01*
X146050235Y-116454678D01*
X146101000Y-116709893D01*
X146101000Y-116970107D01*
X146050235Y-117225322D01*
X145991903Y-117366148D01*
X145950656Y-117465727D01*
X145950655Y-117465728D01*
X145806088Y-117682089D01*
X145622089Y-117866088D01*
X145477521Y-117962685D01*
X145405727Y-118010656D01*
X145306148Y-118051903D01*
X145165322Y-118110235D01*
X145037715Y-118135617D01*
X144910109Y-118161000D01*
X144649891Y-118161000D01*
X144522285Y-118135617D01*
X144394678Y-118110235D01*
X144253852Y-118051903D01*
X144154273Y-118010656D01*
X144082479Y-117962685D01*
X143937911Y-117866088D01*
X143753912Y-117682089D01*
X143609345Y-117465728D01*
X143609344Y-117465727D01*
X143568097Y-117366148D01*
X143509765Y-117225322D01*
X143459000Y-116970107D01*
X143459000Y-116709893D01*
X143509765Y-116454678D01*
X143568097Y-116313852D01*
X143609344Y-116214273D01*
X143657315Y-116142479D01*
X143753912Y-115997911D01*
X143937911Y-115813912D01*
X144154272Y-115669345D01*
X144154273Y-115669344D01*
X144253852Y-115628097D01*
X144394678Y-115569765D01*
X144522285Y-115544383D01*
X144649891Y-115519000D01*
X144910109Y-115519000D01*
X145037715Y-115544383D01*
G37*
G36*
X125843512Y-112133927D02*
G01*
X125992812Y-112163624D01*
X126156784Y-112231544D01*
X126304354Y-112330147D01*
X126429853Y-112455646D01*
X126528456Y-112603216D01*
X126596376Y-112767188D01*
X126631000Y-112941259D01*
X126631000Y-113118741D01*
X126596376Y-113292812D01*
X126528456Y-113456784D01*
X126429853Y-113604354D01*
X126304354Y-113729853D01*
X126156784Y-113828456D01*
X125992812Y-113896376D01*
X125843512Y-113926073D01*
X125818742Y-113931000D01*
X125641258Y-113931000D01*
X125616488Y-113926073D01*
X125467188Y-113896376D01*
X125303216Y-113828456D01*
X125155646Y-113729853D01*
X125030147Y-113604354D01*
X124931544Y-113456784D01*
X124863624Y-113292812D01*
X124829000Y-113118741D01*
X124829000Y-112941259D01*
X124863624Y-112767188D01*
X124931544Y-112603216D01*
X125030147Y-112455646D01*
X125155646Y-112330147D01*
X125303216Y-112231544D01*
X125467188Y-112163624D01*
X125616488Y-112133927D01*
X125641258Y-112129000D01*
X125818742Y-112129000D01*
X125843512Y-112133927D01*
G37*
G36*
X146163512Y-112133927D02*
G01*
X146312812Y-112163624D01*
X146476784Y-112231544D01*
X146624354Y-112330147D01*
X146749853Y-112455646D01*
X146848456Y-112603216D01*
X146916376Y-112767188D01*
X146951000Y-112941259D01*
X146951000Y-113118741D01*
X146916376Y-113292812D01*
X146848456Y-113456784D01*
X146749853Y-113604354D01*
X146624354Y-113729853D01*
X146476784Y-113828456D01*
X146312812Y-113896376D01*
X146163512Y-113926073D01*
X146138742Y-113931000D01*
X145961258Y-113931000D01*
X145936488Y-113926073D01*
X145787188Y-113896376D01*
X145623216Y-113828456D01*
X145475646Y-113729853D01*
X145350147Y-113604354D01*
X145251544Y-113456784D01*
X145183624Y-113292812D01*
X145149000Y-113118741D01*
X145149000Y-112941259D01*
X145183624Y-112767188D01*
X145251544Y-112603216D01*
X145350147Y-112455646D01*
X145475646Y-112330147D01*
X145623216Y-112231544D01*
X145787188Y-112163624D01*
X145936488Y-112133927D01*
X145961258Y-112129000D01*
X146138742Y-112129000D01*
X146163512Y-112133927D01*
G37*
G36*
X146158137Y-109592858D02*
G01*
X146312812Y-109623624D01*
X146476784Y-109691544D01*
X146624354Y-109790147D01*
X146749853Y-109915646D01*
X146848456Y-110063216D01*
X146916376Y-110227188D01*
X146951000Y-110401259D01*
X146951000Y-110578741D01*
X146916376Y-110752812D01*
X146848456Y-110916784D01*
X146749853Y-111064354D01*
X146624354Y-111189853D01*
X146476784Y-111288456D01*
X146312812Y-111356376D01*
X146163512Y-111386073D01*
X146138742Y-111391000D01*
X145961258Y-111391000D01*
X145936488Y-111386073D01*
X145787188Y-111356376D01*
X145623216Y-111288456D01*
X145475646Y-111189853D01*
X145350147Y-111064354D01*
X145251544Y-110916784D01*
X145183624Y-110752812D01*
X145149000Y-110578741D01*
X145149000Y-110401259D01*
X145183624Y-110227188D01*
X145251544Y-110063216D01*
X145350147Y-109915646D01*
X145475646Y-109790147D01*
X145623216Y-109691544D01*
X145787188Y-109623624D01*
X145941863Y-109592858D01*
X145961258Y-109589000D01*
X146138742Y-109589000D01*
X146158137Y-109592858D01*
G37*
G36*
X125838137Y-109592858D02*
G01*
X125992812Y-109623624D01*
X126156784Y-109691544D01*
X126304354Y-109790147D01*
X126429853Y-109915646D01*
X126528456Y-110063216D01*
X126596376Y-110227188D01*
X126631000Y-110401259D01*
X126631000Y-110578741D01*
X126596376Y-110752812D01*
X126528456Y-110916784D01*
X126429853Y-111064354D01*
X126304354Y-111189853D01*
X126156784Y-111288456D01*
X125992812Y-111356376D01*
X125843512Y-111386073D01*
X125818742Y-111391000D01*
X125641258Y-111391000D01*
X125616488Y-111386073D01*
X125467188Y-111356376D01*
X125303216Y-111288456D01*
X125155646Y-111189853D01*
X125030147Y-111064354D01*
X124931544Y-110916784D01*
X124863624Y-110752812D01*
X124829000Y-110578741D01*
X124829000Y-110401259D01*
X124863624Y-110227188D01*
X124931544Y-110063216D01*
X125030147Y-109915646D01*
X125155646Y-109790147D01*
X125303216Y-109691544D01*
X125467188Y-109623624D01*
X125621863Y-109592858D01*
X125641258Y-109589000D01*
X125818742Y-109589000D01*
X125838137Y-109592858D01*
G37*
G36*
X129399999Y-108292737D02*
G01*
X129409608Y-108295652D01*
X129418472Y-108300390D01*
X129426237Y-108306763D01*
X129436448Y-108319206D01*
X129443378Y-108329575D01*
X129460705Y-108346902D01*
X129481080Y-108360515D01*
X129503720Y-108369891D01*
X129527753Y-108374671D01*
X129552257Y-108374670D01*
X129576290Y-108369888D01*
X129598929Y-108360510D01*
X129619302Y-108346895D01*
X129636629Y-108329568D01*
X129643558Y-108319198D01*
X129653763Y-108306763D01*
X129661528Y-108300390D01*
X129670392Y-108295652D01*
X129680001Y-108292737D01*
X129696140Y-108291148D01*
X130183861Y-108291148D01*
X130202199Y-108292954D01*
X130214450Y-108293556D01*
X130232869Y-108293556D01*
X130255149Y-108295750D01*
X130339233Y-108312476D01*
X130360660Y-108318976D01*
X130439858Y-108351780D01*
X130445303Y-108354691D01*
X130445309Y-108354693D01*
X130454169Y-108359429D01*
X130454173Y-108359432D01*
X130459614Y-108362340D01*
X130530899Y-108409971D01*
X130548204Y-108424172D01*
X130608828Y-108484796D01*
X130623029Y-108502101D01*
X130670660Y-108573386D01*
X130673568Y-108578827D01*
X130673571Y-108578831D01*
X130678307Y-108587691D01*
X130678309Y-108587697D01*
X130681220Y-108593142D01*
X130714024Y-108672340D01*
X130720524Y-108693767D01*
X130737250Y-108777851D01*
X130739444Y-108800131D01*
X130739444Y-108818550D01*
X130740046Y-108830801D01*
X130741852Y-108849139D01*
X130741852Y-109336862D01*
X130740046Y-109355199D01*
X130739444Y-109367450D01*
X130739444Y-109385869D01*
X130737250Y-109408149D01*
X130720524Y-109492233D01*
X130714024Y-109513660D01*
X130681220Y-109592858D01*
X130678309Y-109598303D01*
X130678307Y-109598309D01*
X130673571Y-109607169D01*
X130673568Y-109607173D01*
X130670660Y-109612614D01*
X130623029Y-109683899D01*
X130608828Y-109701204D01*
X130548204Y-109761828D01*
X130530899Y-109776029D01*
X130459614Y-109823660D01*
X130454173Y-109826568D01*
X130454169Y-109826571D01*
X130445309Y-109831307D01*
X130445303Y-109831309D01*
X130439858Y-109834220D01*
X130360660Y-109867024D01*
X130339233Y-109873524D01*
X130255149Y-109890250D01*
X130232869Y-109892444D01*
X130214450Y-109892444D01*
X130202199Y-109893046D01*
X130183862Y-109894852D01*
X129696140Y-109894852D01*
X129680001Y-109893263D01*
X129670392Y-109890348D01*
X129661528Y-109885610D01*
X129653763Y-109879237D01*
X129643552Y-109866794D01*
X129636622Y-109856425D01*
X129619295Y-109839098D01*
X129598920Y-109825485D01*
X129576280Y-109816109D01*
X129552247Y-109811329D01*
X129527743Y-109811330D01*
X129503710Y-109816112D01*
X129481071Y-109825490D01*
X129460698Y-109839105D01*
X129443371Y-109856432D01*
X129436442Y-109866802D01*
X129426237Y-109879237D01*
X129418472Y-109885610D01*
X129409608Y-109890348D01*
X129399999Y-109893263D01*
X129383860Y-109894852D01*
X128896138Y-109894852D01*
X128877801Y-109893046D01*
X128865550Y-109892444D01*
X128847131Y-109892444D01*
X128824851Y-109890250D01*
X128740767Y-109873524D01*
X128719340Y-109867024D01*
X128640142Y-109834220D01*
X128634697Y-109831309D01*
X128634691Y-109831307D01*
X128625831Y-109826571D01*
X128625827Y-109826568D01*
X128620386Y-109823660D01*
X128549101Y-109776029D01*
X128531796Y-109761828D01*
X128471172Y-109701204D01*
X128456971Y-109683899D01*
X128409340Y-109612614D01*
X128406432Y-109607173D01*
X128406429Y-109607169D01*
X128401693Y-109598309D01*
X128401691Y-109598303D01*
X128398780Y-109592858D01*
X128365976Y-109513660D01*
X128359476Y-109492233D01*
X128342750Y-109408149D01*
X128340556Y-109385869D01*
X128340556Y-109367450D01*
X128339954Y-109355199D01*
X128338148Y-109336862D01*
X128338148Y-108849139D01*
X128339954Y-108830801D01*
X128340556Y-108818550D01*
X128340556Y-108800131D01*
X128342750Y-108777851D01*
X128359476Y-108693767D01*
X128365976Y-108672340D01*
X128398780Y-108593142D01*
X128401691Y-108587697D01*
X128401693Y-108587691D01*
X128406429Y-108578831D01*
X128406432Y-108578827D01*
X128409340Y-108573386D01*
X128456971Y-108502101D01*
X128471172Y-108484796D01*
X128531796Y-108424172D01*
X128549101Y-108409971D01*
X128620386Y-108362340D01*
X128625827Y-108359432D01*
X128625831Y-108359429D01*
X128634691Y-108354693D01*
X128634697Y-108354691D01*
X128640142Y-108351780D01*
X128719340Y-108318976D01*
X128740767Y-108312476D01*
X128824851Y-108295750D01*
X128847131Y-108293556D01*
X128865550Y-108293556D01*
X128877801Y-108292954D01*
X128896139Y-108291148D01*
X129383860Y-108291148D01*
X129399999Y-108292737D01*
G37*
G36*
X134349928Y-109156764D02*
G01*
X134371009Y-109163160D01*
X134390445Y-109173548D01*
X134407476Y-109187524D01*
X134421452Y-109204555D01*
X134431840Y-109223991D01*
X134438236Y-109245072D01*
X134441000Y-109273140D01*
X134441000Y-109736860D01*
X134438236Y-109764928D01*
X134431840Y-109786009D01*
X134421452Y-109805445D01*
X134407476Y-109822476D01*
X134390445Y-109836452D01*
X134371009Y-109846840D01*
X134349928Y-109853236D01*
X134321860Y-109856000D01*
X132508140Y-109856000D01*
X132480072Y-109853236D01*
X132458991Y-109846840D01*
X132439555Y-109836452D01*
X132422524Y-109822476D01*
X132408548Y-109805445D01*
X132398160Y-109786009D01*
X132391764Y-109764928D01*
X132389000Y-109736860D01*
X132389000Y-109273140D01*
X132391764Y-109245072D01*
X132398160Y-109223991D01*
X132408548Y-109204555D01*
X132422524Y-109187524D01*
X132439555Y-109173548D01*
X132458991Y-109163160D01*
X132480072Y-109156764D01*
X132508140Y-109154000D01*
X134321860Y-109154000D01*
X134349928Y-109156764D01*
G37*
G36*
X139299928Y-109156764D02*
G01*
X139321009Y-109163160D01*
X139340445Y-109173548D01*
X139357476Y-109187524D01*
X139371452Y-109204555D01*
X139381840Y-109223991D01*
X139388236Y-109245072D01*
X139391000Y-109273140D01*
X139391000Y-109736860D01*
X139388236Y-109764928D01*
X139381840Y-109786009D01*
X139371452Y-109805445D01*
X139357476Y-109822476D01*
X139340445Y-109836452D01*
X139321009Y-109846840D01*
X139299928Y-109853236D01*
X139271860Y-109856000D01*
X137458140Y-109856000D01*
X137430072Y-109853236D01*
X137408991Y-109846840D01*
X137389555Y-109836452D01*
X137372524Y-109822476D01*
X137358548Y-109805445D01*
X137348160Y-109786009D01*
X137341764Y-109764928D01*
X137339000Y-109736860D01*
X137339000Y-109273140D01*
X137341764Y-109245072D01*
X137348160Y-109223991D01*
X137358548Y-109204555D01*
X137372524Y-109187524D01*
X137389555Y-109173548D01*
X137408991Y-109163160D01*
X137430072Y-109156764D01*
X137458140Y-109154000D01*
X139271860Y-109154000D01*
X139299928Y-109156764D01*
G37*
G36*
X146163512Y-107053927D02*
G01*
X146312812Y-107083624D01*
X146476784Y-107151544D01*
X146624354Y-107250147D01*
X146749853Y-107375646D01*
X146848456Y-107523216D01*
X146916376Y-107687188D01*
X146951000Y-107861259D01*
X146951000Y-108038741D01*
X146916376Y-108212812D01*
X146848456Y-108376784D01*
X146749853Y-108524354D01*
X146624354Y-108649853D01*
X146476784Y-108748456D01*
X146312812Y-108816376D01*
X146163512Y-108846073D01*
X146138742Y-108851000D01*
X145961258Y-108851000D01*
X145936488Y-108846073D01*
X145787188Y-108816376D01*
X145623216Y-108748456D01*
X145475646Y-108649853D01*
X145350147Y-108524354D01*
X145251544Y-108376784D01*
X145183624Y-108212812D01*
X145149000Y-108038741D01*
X145149000Y-107861259D01*
X145183624Y-107687188D01*
X145251544Y-107523216D01*
X145350147Y-107375646D01*
X145475646Y-107250147D01*
X145623216Y-107151544D01*
X145787188Y-107083624D01*
X145936488Y-107053927D01*
X145961258Y-107049000D01*
X146138742Y-107049000D01*
X146163512Y-107053927D01*
G37*
G36*
X125843512Y-107053927D02*
G01*
X125992812Y-107083624D01*
X126156784Y-107151544D01*
X126304354Y-107250147D01*
X126429853Y-107375646D01*
X126528456Y-107523216D01*
X126596376Y-107687188D01*
X126631000Y-107861259D01*
X126631000Y-108038741D01*
X126596376Y-108212812D01*
X126528456Y-108376784D01*
X126429853Y-108524354D01*
X126304354Y-108649853D01*
X126156784Y-108748456D01*
X125992812Y-108816376D01*
X125843512Y-108846073D01*
X125818742Y-108851000D01*
X125641258Y-108851000D01*
X125616488Y-108846073D01*
X125467188Y-108816376D01*
X125303216Y-108748456D01*
X125155646Y-108649853D01*
X125030147Y-108524354D01*
X124931544Y-108376784D01*
X124863624Y-108212812D01*
X124829000Y-108038741D01*
X124829000Y-107861259D01*
X124863624Y-107687188D01*
X124931544Y-107523216D01*
X125030147Y-107375646D01*
X125155646Y-107250147D01*
X125303216Y-107151544D01*
X125467188Y-107083624D01*
X125616488Y-107053927D01*
X125641258Y-107049000D01*
X125818742Y-107049000D01*
X125843512Y-107053927D01*
G37*
G36*
X139299928Y-107886764D02*
G01*
X139321009Y-107893160D01*
X139340445Y-107903548D01*
X139357476Y-107917524D01*
X139371452Y-107934555D01*
X139381840Y-107953991D01*
X139388236Y-107975072D01*
X139391000Y-108003140D01*
X139391000Y-108466860D01*
X139388236Y-108494928D01*
X139381840Y-108516009D01*
X139371452Y-108535445D01*
X139357476Y-108552476D01*
X139340445Y-108566452D01*
X139321009Y-108576840D01*
X139299928Y-108583236D01*
X139271860Y-108586000D01*
X137458140Y-108586000D01*
X137430072Y-108583236D01*
X137408991Y-108576840D01*
X137389555Y-108566452D01*
X137372524Y-108552476D01*
X137358548Y-108535445D01*
X137348160Y-108516009D01*
X137341764Y-108494928D01*
X137339000Y-108466860D01*
X137339000Y-108003140D01*
X137341764Y-107975072D01*
X137348160Y-107953991D01*
X137358548Y-107934555D01*
X137372524Y-107917524D01*
X137389555Y-107903548D01*
X137408991Y-107893160D01*
X137430072Y-107886764D01*
X137458140Y-107884000D01*
X139271860Y-107884000D01*
X139299928Y-107886764D01*
G37*
G36*
X134349928Y-107886764D02*
G01*
X134371009Y-107893160D01*
X134390445Y-107903548D01*
X134407476Y-107917524D01*
X134421452Y-107934555D01*
X134431840Y-107953991D01*
X134438236Y-107975072D01*
X134441000Y-108003140D01*
X134441000Y-108466860D01*
X134438236Y-108494928D01*
X134431840Y-108516009D01*
X134421452Y-108535445D01*
X134407476Y-108552476D01*
X134390445Y-108566452D01*
X134371009Y-108576840D01*
X134349928Y-108583236D01*
X134321860Y-108586000D01*
X132508140Y-108586000D01*
X132480072Y-108583236D01*
X132458991Y-108576840D01*
X132439555Y-108566452D01*
X132422524Y-108552476D01*
X132408548Y-108535445D01*
X132398160Y-108516009D01*
X132391764Y-108494928D01*
X132389000Y-108466860D01*
X132389000Y-108003140D01*
X132391764Y-107975072D01*
X132398160Y-107953991D01*
X132408548Y-107934555D01*
X132422524Y-107917524D01*
X132439555Y-107903548D01*
X132458991Y-107893160D01*
X132480072Y-107886764D01*
X132508140Y-107884000D01*
X134321860Y-107884000D01*
X134349928Y-107886764D01*
G37*
G36*
X129399999Y-106133737D02*
G01*
X129409608Y-106136652D01*
X129418472Y-106141390D01*
X129426237Y-106147763D01*
X129436448Y-106160206D01*
X129443378Y-106170575D01*
X129460705Y-106187902D01*
X129481080Y-106201515D01*
X129503720Y-106210891D01*
X129527753Y-106215671D01*
X129552257Y-106215670D01*
X129576290Y-106210888D01*
X129598929Y-106201510D01*
X129619302Y-106187895D01*
X129636629Y-106170568D01*
X129643558Y-106160198D01*
X129653763Y-106147763D01*
X129661528Y-106141390D01*
X129670392Y-106136652D01*
X129680001Y-106133737D01*
X129696140Y-106132148D01*
X130183861Y-106132148D01*
X130202199Y-106133954D01*
X130214450Y-106134556D01*
X130232869Y-106134556D01*
X130255149Y-106136750D01*
X130339233Y-106153476D01*
X130360660Y-106159976D01*
X130439858Y-106192780D01*
X130445303Y-106195691D01*
X130445309Y-106195693D01*
X130454169Y-106200429D01*
X130454173Y-106200432D01*
X130459614Y-106203340D01*
X130530899Y-106250971D01*
X130548204Y-106265172D01*
X130608828Y-106325796D01*
X130623029Y-106343101D01*
X130670660Y-106414386D01*
X130673568Y-106419827D01*
X130673571Y-106419831D01*
X130678307Y-106428691D01*
X130678309Y-106428697D01*
X130681220Y-106434142D01*
X130714024Y-106513340D01*
X130720524Y-106534767D01*
X130737250Y-106618851D01*
X130739444Y-106641131D01*
X130739444Y-106659550D01*
X130740046Y-106671801D01*
X130741852Y-106690139D01*
X130741852Y-107177862D01*
X130740046Y-107196199D01*
X130739444Y-107208450D01*
X130739444Y-107226869D01*
X130737250Y-107249149D01*
X130720524Y-107333233D01*
X130714024Y-107354660D01*
X130681220Y-107433858D01*
X130678309Y-107439303D01*
X130678307Y-107439309D01*
X130673571Y-107448169D01*
X130673568Y-107448173D01*
X130670660Y-107453614D01*
X130623029Y-107524899D01*
X130608828Y-107542204D01*
X130548204Y-107602828D01*
X130530899Y-107617029D01*
X130459614Y-107664660D01*
X130454173Y-107667568D01*
X130454169Y-107667571D01*
X130445309Y-107672307D01*
X130445303Y-107672309D01*
X130439858Y-107675220D01*
X130360660Y-107708024D01*
X130339233Y-107714524D01*
X130255149Y-107731250D01*
X130232869Y-107733444D01*
X130214450Y-107733444D01*
X130202199Y-107734046D01*
X130183862Y-107735852D01*
X129696140Y-107735852D01*
X129680001Y-107734263D01*
X129670392Y-107731348D01*
X129661528Y-107726610D01*
X129653763Y-107720237D01*
X129643552Y-107707794D01*
X129636622Y-107697425D01*
X129619295Y-107680098D01*
X129598920Y-107666485D01*
X129576280Y-107657109D01*
X129552247Y-107652329D01*
X129527743Y-107652330D01*
X129503710Y-107657112D01*
X129481071Y-107666490D01*
X129460698Y-107680105D01*
X129443371Y-107697432D01*
X129436442Y-107707802D01*
X129426237Y-107720237D01*
X129418472Y-107726610D01*
X129409608Y-107731348D01*
X129399999Y-107734263D01*
X129383860Y-107735852D01*
X128896138Y-107735852D01*
X128877801Y-107734046D01*
X128865550Y-107733444D01*
X128847131Y-107733444D01*
X128824851Y-107731250D01*
X128740767Y-107714524D01*
X128719340Y-107708024D01*
X128640142Y-107675220D01*
X128634697Y-107672309D01*
X128634691Y-107672307D01*
X128625831Y-107667571D01*
X128625827Y-107667568D01*
X128620386Y-107664660D01*
X128549101Y-107617029D01*
X128531796Y-107602828D01*
X128471172Y-107542204D01*
X128456971Y-107524899D01*
X128409340Y-107453614D01*
X128406432Y-107448173D01*
X128406429Y-107448169D01*
X128401693Y-107439309D01*
X128401691Y-107439303D01*
X128398780Y-107433858D01*
X128365976Y-107354660D01*
X128359476Y-107333233D01*
X128342750Y-107249149D01*
X128340556Y-107226869D01*
X128340556Y-107208450D01*
X128339954Y-107196199D01*
X128338148Y-107177862D01*
X128338148Y-106690139D01*
X128339954Y-106671801D01*
X128340556Y-106659550D01*
X128340556Y-106641131D01*
X128342750Y-106618851D01*
X128359476Y-106534767D01*
X128365976Y-106513340D01*
X128398780Y-106434142D01*
X128401691Y-106428697D01*
X128401693Y-106428691D01*
X128406429Y-106419831D01*
X128406432Y-106419827D01*
X128409340Y-106414386D01*
X128456971Y-106343101D01*
X128471172Y-106325796D01*
X128531796Y-106265172D01*
X128549101Y-106250971D01*
X128620386Y-106203340D01*
X128625827Y-106200432D01*
X128625831Y-106200429D01*
X128634691Y-106195693D01*
X128634697Y-106195691D01*
X128640142Y-106192780D01*
X128719340Y-106159976D01*
X128740767Y-106153476D01*
X128824851Y-106136750D01*
X128847131Y-106134556D01*
X128865550Y-106134556D01*
X128877801Y-106133954D01*
X128896139Y-106132148D01*
X129383860Y-106132148D01*
X129399999Y-106133737D01*
G37*
G36*
X139299928Y-106616764D02*
G01*
X139321009Y-106623160D01*
X139340445Y-106633548D01*
X139357476Y-106647524D01*
X139371452Y-106664555D01*
X139381840Y-106683991D01*
X139388236Y-106705072D01*
X139391000Y-106733140D01*
X139391000Y-107196860D01*
X139388236Y-107224928D01*
X139381840Y-107246009D01*
X139371452Y-107265445D01*
X139357476Y-107282476D01*
X139340445Y-107296452D01*
X139321009Y-107306840D01*
X139299928Y-107313236D01*
X139271860Y-107316000D01*
X137458140Y-107316000D01*
X137430072Y-107313236D01*
X137408991Y-107306840D01*
X137389555Y-107296452D01*
X137372524Y-107282476D01*
X137358548Y-107265445D01*
X137348160Y-107246009D01*
X137341764Y-107224928D01*
X137339000Y-107196860D01*
X137339000Y-106733140D01*
X137341764Y-106705072D01*
X137348160Y-106683991D01*
X137358548Y-106664555D01*
X137372524Y-106647524D01*
X137389555Y-106633548D01*
X137408991Y-106623160D01*
X137430072Y-106616764D01*
X137458140Y-106614000D01*
X139271860Y-106614000D01*
X139299928Y-106616764D01*
G37*
G36*
X134349928Y-106616764D02*
G01*
X134371009Y-106623160D01*
X134390445Y-106633548D01*
X134407476Y-106647524D01*
X134421452Y-106664555D01*
X134431840Y-106683991D01*
X134438236Y-106705072D01*
X134441000Y-106733140D01*
X134441000Y-107196860D01*
X134438236Y-107224928D01*
X134431840Y-107246009D01*
X134421452Y-107265445D01*
X134407476Y-107282476D01*
X134390445Y-107296452D01*
X134371009Y-107306840D01*
X134349928Y-107313236D01*
X134321860Y-107316000D01*
X132508140Y-107316000D01*
X132480072Y-107313236D01*
X132458991Y-107306840D01*
X132439555Y-107296452D01*
X132422524Y-107282476D01*
X132408548Y-107265445D01*
X132398160Y-107246009D01*
X132391764Y-107224928D01*
X132389000Y-107196860D01*
X132389000Y-106733140D01*
X132391764Y-106705072D01*
X132398160Y-106683991D01*
X132408548Y-106664555D01*
X132422524Y-106647524D01*
X132439555Y-106633548D01*
X132458991Y-106623160D01*
X132480072Y-106616764D01*
X132508140Y-106614000D01*
X134321860Y-106614000D01*
X134349928Y-106616764D01*
G37*
G36*
X125843512Y-104513927D02*
G01*
X125992812Y-104543624D01*
X126156784Y-104611544D01*
X126304354Y-104710147D01*
X126429853Y-104835646D01*
X126528456Y-104983216D01*
X126596376Y-105147188D01*
X126631000Y-105321259D01*
X126631000Y-105498741D01*
X126596376Y-105672812D01*
X126528456Y-105836784D01*
X126429853Y-105984354D01*
X126304354Y-106109853D01*
X126156784Y-106208456D01*
X125992812Y-106276376D01*
X125843512Y-106306073D01*
X125818742Y-106311000D01*
X125641258Y-106311000D01*
X125616488Y-106306073D01*
X125467188Y-106276376D01*
X125303216Y-106208456D01*
X125155646Y-106109853D01*
X125030147Y-105984354D01*
X124931544Y-105836784D01*
X124863624Y-105672812D01*
X124829000Y-105498741D01*
X124829000Y-105321259D01*
X124863624Y-105147188D01*
X124931544Y-104983216D01*
X125030147Y-104835646D01*
X125155646Y-104710147D01*
X125303216Y-104611544D01*
X125467188Y-104543624D01*
X125616488Y-104513927D01*
X125641258Y-104509000D01*
X125818742Y-104509000D01*
X125843512Y-104513927D01*
G37*
G36*
X146163512Y-104513927D02*
G01*
X146312812Y-104543624D01*
X146476784Y-104611544D01*
X146624354Y-104710147D01*
X146749853Y-104835646D01*
X146848456Y-104983216D01*
X146916376Y-105147188D01*
X146951000Y-105321259D01*
X146951000Y-105498741D01*
X146916376Y-105672812D01*
X146848456Y-105836784D01*
X146749853Y-105984354D01*
X146624354Y-106109853D01*
X146476784Y-106208456D01*
X146312812Y-106276376D01*
X146163512Y-106306073D01*
X146138742Y-106311000D01*
X145961258Y-106311000D01*
X145936488Y-106306073D01*
X145787188Y-106276376D01*
X145623216Y-106208456D01*
X145475646Y-106109853D01*
X145350147Y-105984354D01*
X145251544Y-105836784D01*
X145183624Y-105672812D01*
X145149000Y-105498741D01*
X145149000Y-105321259D01*
X145183624Y-105147188D01*
X145251544Y-104983216D01*
X145350147Y-104835646D01*
X145475646Y-104710147D01*
X145623216Y-104611544D01*
X145787188Y-104543624D01*
X145936488Y-104513927D01*
X145961258Y-104509000D01*
X146138742Y-104509000D01*
X146163512Y-104513927D01*
G37*
G36*
X134349928Y-105346764D02*
G01*
X134371009Y-105353160D01*
X134390445Y-105363548D01*
X134407476Y-105377524D01*
X134421452Y-105394555D01*
X134431840Y-105413991D01*
X134438236Y-105435072D01*
X134441000Y-105463140D01*
X134441000Y-105926860D01*
X134438236Y-105954928D01*
X134431840Y-105976009D01*
X134421452Y-105995445D01*
X134407476Y-106012476D01*
X134390445Y-106026452D01*
X134371009Y-106036840D01*
X134349928Y-106043236D01*
X134321860Y-106046000D01*
X132508140Y-106046000D01*
X132480072Y-106043236D01*
X132458991Y-106036840D01*
X132439555Y-106026452D01*
X132422524Y-106012476D01*
X132408548Y-105995445D01*
X132398160Y-105976009D01*
X132391764Y-105954928D01*
X132389000Y-105926860D01*
X132389000Y-105463140D01*
X132391764Y-105435072D01*
X132398160Y-105413991D01*
X132408548Y-105394555D01*
X132422524Y-105377524D01*
X132439555Y-105363548D01*
X132458991Y-105353160D01*
X132480072Y-105346764D01*
X132508140Y-105344000D01*
X134321860Y-105344000D01*
X134349928Y-105346764D01*
G37*
G36*
X139299928Y-105346764D02*
G01*
X139321009Y-105353160D01*
X139340445Y-105363548D01*
X139357476Y-105377524D01*
X139371452Y-105394555D01*
X139381840Y-105413991D01*
X139388236Y-105435072D01*
X139391000Y-105463140D01*
X139391000Y-105926860D01*
X139388236Y-105954928D01*
X139381840Y-105976009D01*
X139371452Y-105995445D01*
X139357476Y-106012476D01*
X139340445Y-106026452D01*
X139321009Y-106036840D01*
X139299928Y-106043236D01*
X139271860Y-106046000D01*
X137458140Y-106046000D01*
X137430072Y-106043236D01*
X137408991Y-106036840D01*
X137389555Y-106026452D01*
X137372524Y-106012476D01*
X137358548Y-105995445D01*
X137348160Y-105976009D01*
X137341764Y-105954928D01*
X137339000Y-105926860D01*
X137339000Y-105463140D01*
X137341764Y-105435072D01*
X137348160Y-105413991D01*
X137358548Y-105394555D01*
X137372524Y-105377524D01*
X137389555Y-105363548D01*
X137408991Y-105353160D01*
X137430072Y-105346764D01*
X137458140Y-105344000D01*
X139271860Y-105344000D01*
X139299928Y-105346764D01*
G37*
G36*
X140359928Y-103356764D02*
G01*
X140381009Y-103363160D01*
X140400445Y-103373548D01*
X140417476Y-103387524D01*
X140431452Y-103404555D01*
X140441840Y-103423991D01*
X140448236Y-103445072D01*
X140451000Y-103473140D01*
X140451000Y-103936860D01*
X140448236Y-103964928D01*
X140441840Y-103986009D01*
X140431452Y-104005445D01*
X140417476Y-104022476D01*
X140400445Y-104036452D01*
X140381009Y-104046840D01*
X140359928Y-104053236D01*
X140331860Y-104056000D01*
X138868140Y-104056000D01*
X138840072Y-104053236D01*
X138818991Y-104046840D01*
X138799555Y-104036452D01*
X138782524Y-104022476D01*
X138768548Y-104005445D01*
X138758160Y-103986009D01*
X138751764Y-103964928D01*
X138749000Y-103936860D01*
X138749000Y-103473140D01*
X138751764Y-103445072D01*
X138758160Y-103423991D01*
X138768548Y-103404555D01*
X138782524Y-103387524D01*
X138799555Y-103373548D01*
X138818991Y-103363160D01*
X138840072Y-103356764D01*
X138868140Y-103354000D01*
X140331860Y-103354000D01*
X140359928Y-103356764D01*
G37*
G36*
X133159928Y-103356764D02*
G01*
X133181009Y-103363160D01*
X133200445Y-103373548D01*
X133217476Y-103387524D01*
X133231452Y-103404555D01*
X133241840Y-103423991D01*
X133248236Y-103445072D01*
X133251000Y-103473140D01*
X133251000Y-103936860D01*
X133248236Y-103964928D01*
X133241840Y-103986009D01*
X133231452Y-104005445D01*
X133217476Y-104022476D01*
X133200445Y-104036452D01*
X133181009Y-104046840D01*
X133159928Y-104053236D01*
X133131860Y-104056000D01*
X131668140Y-104056000D01*
X131640072Y-104053236D01*
X131618991Y-104046840D01*
X131599555Y-104036452D01*
X131582524Y-104022476D01*
X131568548Y-104005445D01*
X131558160Y-103986009D01*
X131551764Y-103964928D01*
X131549000Y-103936860D01*
X131549000Y-103473140D01*
X131551764Y-103445072D01*
X131558160Y-103423991D01*
X131568548Y-103404555D01*
X131582524Y-103387524D01*
X131599555Y-103373548D01*
X131618991Y-103363160D01*
X131640072Y-103356764D01*
X131668140Y-103354000D01*
X133131860Y-103354000D01*
X133159928Y-103356764D01*
G37*
G36*
X146163512Y-101973927D02*
G01*
X146312812Y-102003624D01*
X146476784Y-102071544D01*
X146624354Y-102170147D01*
X146749853Y-102295646D01*
X146848456Y-102443216D01*
X146916376Y-102607188D01*
X146951000Y-102781259D01*
X146951000Y-102958741D01*
X146916376Y-103132812D01*
X146848456Y-103296784D01*
X146749853Y-103444354D01*
X146624354Y-103569853D01*
X146476784Y-103668456D01*
X146312812Y-103736376D01*
X146163512Y-103766073D01*
X146138742Y-103771000D01*
X145961258Y-103771000D01*
X145936488Y-103766073D01*
X145787188Y-103736376D01*
X145623216Y-103668456D01*
X145475646Y-103569853D01*
X145350147Y-103444354D01*
X145251544Y-103296784D01*
X145183624Y-103132812D01*
X145149000Y-102958741D01*
X145149000Y-102781259D01*
X145183624Y-102607188D01*
X145251544Y-102443216D01*
X145350147Y-102295646D01*
X145475646Y-102170147D01*
X145623216Y-102071544D01*
X145787188Y-102003624D01*
X145936488Y-101973927D01*
X145961258Y-101969000D01*
X146138742Y-101969000D01*
X146163512Y-101973927D01*
G37*
G36*
X125843512Y-101973927D02*
G01*
X125992812Y-102003624D01*
X126156784Y-102071544D01*
X126304354Y-102170147D01*
X126429853Y-102295646D01*
X126528456Y-102443216D01*
X126596376Y-102607188D01*
X126631000Y-102781259D01*
X126631000Y-102958741D01*
X126596376Y-103132812D01*
X126528456Y-103296784D01*
X126429853Y-103444354D01*
X126304354Y-103569853D01*
X126156784Y-103668456D01*
X125992812Y-103736376D01*
X125843512Y-103766073D01*
X125818742Y-103771000D01*
X125641258Y-103771000D01*
X125616488Y-103766073D01*
X125467188Y-103736376D01*
X125303216Y-103668456D01*
X125155646Y-103569853D01*
X125030147Y-103444354D01*
X124931544Y-103296784D01*
X124863624Y-103132812D01*
X124829000Y-102958741D01*
X124829000Y-102781259D01*
X124863624Y-102607188D01*
X124931544Y-102443216D01*
X125030147Y-102295646D01*
X125155646Y-102170147D01*
X125303216Y-102071544D01*
X125467188Y-102003624D01*
X125616488Y-101973927D01*
X125641258Y-101969000D01*
X125818742Y-101969000D01*
X125843512Y-101973927D01*
G37*
G36*
X140359928Y-102086764D02*
G01*
X140381009Y-102093160D01*
X140400445Y-102103548D01*
X140417476Y-102117524D01*
X140431452Y-102134555D01*
X140441840Y-102153991D01*
X140448236Y-102175072D01*
X140451000Y-102203140D01*
X140451000Y-102666860D01*
X140448236Y-102694928D01*
X140441840Y-102716009D01*
X140431452Y-102735445D01*
X140417476Y-102752476D01*
X140400445Y-102766452D01*
X140381009Y-102776840D01*
X140359928Y-102783236D01*
X140331860Y-102786000D01*
X138868140Y-102786000D01*
X138840072Y-102783236D01*
X138818991Y-102776840D01*
X138799555Y-102766452D01*
X138782524Y-102752476D01*
X138768548Y-102735445D01*
X138758160Y-102716009D01*
X138751764Y-102694928D01*
X138749000Y-102666860D01*
X138749000Y-102203140D01*
X138751764Y-102175072D01*
X138758160Y-102153991D01*
X138768548Y-102134555D01*
X138782524Y-102117524D01*
X138799555Y-102103548D01*
X138818991Y-102093160D01*
X138840072Y-102086764D01*
X138868140Y-102084000D01*
X140331860Y-102084000D01*
X140359928Y-102086764D01*
G37*
G36*
X133159928Y-102086764D02*
G01*
X133181009Y-102093160D01*
X133200445Y-102103548D01*
X133217476Y-102117524D01*
X133231452Y-102134555D01*
X133241840Y-102153991D01*
X133248236Y-102175072D01*
X133251000Y-102203140D01*
X133251000Y-102666860D01*
X133248236Y-102694928D01*
X133241840Y-102716009D01*
X133231452Y-102735445D01*
X133217476Y-102752476D01*
X133200445Y-102766452D01*
X133181009Y-102776840D01*
X133159928Y-102783236D01*
X133131860Y-102786000D01*
X131668140Y-102786000D01*
X131640072Y-102783236D01*
X131618991Y-102776840D01*
X131599555Y-102766452D01*
X131582524Y-102752476D01*
X131568548Y-102735445D01*
X131558160Y-102716009D01*
X131551764Y-102694928D01*
X131549000Y-102666860D01*
X131549000Y-102203140D01*
X131551764Y-102175072D01*
X131558160Y-102153991D01*
X131568548Y-102134555D01*
X131582524Y-102117524D01*
X131599555Y-102103548D01*
X131618991Y-102093160D01*
X131640072Y-102086764D01*
X131668140Y-102084000D01*
X133131860Y-102084000D01*
X133159928Y-102086764D01*
G37*
G36*
X133159928Y-100816764D02*
G01*
X133181009Y-100823160D01*
X133200445Y-100833548D01*
X133217476Y-100847524D01*
X133231452Y-100864555D01*
X133241840Y-100883991D01*
X133248236Y-100905072D01*
X133251000Y-100933140D01*
X133251000Y-101396860D01*
X133248236Y-101424928D01*
X133241840Y-101446009D01*
X133231452Y-101465445D01*
X133217476Y-101482476D01*
X133200445Y-101496452D01*
X133181009Y-101506840D01*
X133159928Y-101513236D01*
X133131860Y-101516000D01*
X131668140Y-101516000D01*
X131640072Y-101513236D01*
X131618991Y-101506840D01*
X131599555Y-101496452D01*
X131582524Y-101482476D01*
X131568548Y-101465445D01*
X131558160Y-101446009D01*
X131551764Y-101424928D01*
X131549000Y-101396860D01*
X131549000Y-100933140D01*
X131551764Y-100905072D01*
X131558160Y-100883991D01*
X131568548Y-100864555D01*
X131582524Y-100847524D01*
X131599555Y-100833548D01*
X131618991Y-100823160D01*
X131640072Y-100816764D01*
X131668140Y-100814000D01*
X133131860Y-100814000D01*
X133159928Y-100816764D01*
G37*
G36*
X140359928Y-100816764D02*
G01*
X140381009Y-100823160D01*
X140400445Y-100833548D01*
X140417476Y-100847524D01*
X140431452Y-100864555D01*
X140441840Y-100883991D01*
X140448236Y-100905072D01*
X140451000Y-100933140D01*
X140451000Y-101396860D01*
X140448236Y-101424928D01*
X140441840Y-101446009D01*
X140431452Y-101465445D01*
X140417476Y-101482476D01*
X140400445Y-101496452D01*
X140381009Y-101506840D01*
X140359928Y-101513236D01*
X140331860Y-101516000D01*
X138868140Y-101516000D01*
X138840072Y-101513236D01*
X138818991Y-101506840D01*
X138799555Y-101496452D01*
X138782524Y-101482476D01*
X138768548Y-101465445D01*
X138758160Y-101446009D01*
X138751764Y-101424928D01*
X138749000Y-101396860D01*
X138749000Y-100933140D01*
X138751764Y-100905072D01*
X138758160Y-100883991D01*
X138768548Y-100864555D01*
X138782524Y-100847524D01*
X138799555Y-100833548D01*
X138818991Y-100823160D01*
X138840072Y-100816764D01*
X138868140Y-100814000D01*
X140331860Y-100814000D01*
X140359928Y-100816764D01*
G37*
G36*
X125843512Y-99433927D02*
G01*
X125992812Y-99463624D01*
X126156784Y-99531544D01*
X126304354Y-99630147D01*
X126429853Y-99755646D01*
X126528456Y-99903216D01*
X126596376Y-100067188D01*
X126631000Y-100241259D01*
X126631000Y-100418741D01*
X126596376Y-100592812D01*
X126528456Y-100756784D01*
X126429853Y-100904354D01*
X126304354Y-101029853D01*
X126156784Y-101128456D01*
X125992812Y-101196376D01*
X125843512Y-101226073D01*
X125818742Y-101231000D01*
X125641258Y-101231000D01*
X125616488Y-101226073D01*
X125467188Y-101196376D01*
X125303216Y-101128456D01*
X125155646Y-101029853D01*
X125030147Y-100904354D01*
X124931544Y-100756784D01*
X124863624Y-100592812D01*
X124829000Y-100418741D01*
X124829000Y-100241259D01*
X124863624Y-100067188D01*
X124931544Y-99903216D01*
X125030147Y-99755646D01*
X125155646Y-99630147D01*
X125303216Y-99531544D01*
X125467188Y-99463624D01*
X125616488Y-99433927D01*
X125641258Y-99429000D01*
X125818742Y-99429000D01*
X125843512Y-99433927D01*
G37*
G36*
X146163512Y-99433927D02*
G01*
X146312812Y-99463624D01*
X146476784Y-99531544D01*
X146624354Y-99630147D01*
X146749853Y-99755646D01*
X146848456Y-99903216D01*
X146916376Y-100067188D01*
X146951000Y-100241259D01*
X146951000Y-100418741D01*
X146916376Y-100592812D01*
X146848456Y-100756784D01*
X146749853Y-100904354D01*
X146624354Y-101029853D01*
X146476784Y-101128456D01*
X146312812Y-101196376D01*
X146163512Y-101226073D01*
X146138742Y-101231000D01*
X145961258Y-101231000D01*
X145936488Y-101226073D01*
X145787188Y-101196376D01*
X145623216Y-101128456D01*
X145475646Y-101029853D01*
X145350147Y-100904354D01*
X145251544Y-100756784D01*
X145183624Y-100592812D01*
X145149000Y-100418741D01*
X145149000Y-100241259D01*
X145183624Y-100067188D01*
X145251544Y-99903216D01*
X145350147Y-99755646D01*
X145475646Y-99630147D01*
X145623216Y-99531544D01*
X145787188Y-99463624D01*
X145936488Y-99433927D01*
X145961258Y-99429000D01*
X146138742Y-99429000D01*
X146163512Y-99433927D01*
G37*
G36*
X140359928Y-99546764D02*
G01*
X140381009Y-99553160D01*
X140400445Y-99563548D01*
X140417476Y-99577524D01*
X140431452Y-99594555D01*
X140441840Y-99613991D01*
X140448236Y-99635072D01*
X140451000Y-99663140D01*
X140451000Y-100126860D01*
X140448236Y-100154928D01*
X140441840Y-100176009D01*
X140431452Y-100195445D01*
X140417476Y-100212476D01*
X140400445Y-100226452D01*
X140381009Y-100236840D01*
X140359928Y-100243236D01*
X140331860Y-100246000D01*
X138868140Y-100246000D01*
X138840072Y-100243236D01*
X138818991Y-100236840D01*
X138799555Y-100226452D01*
X138782524Y-100212476D01*
X138768548Y-100195445D01*
X138758160Y-100176009D01*
X138751764Y-100154928D01*
X138749000Y-100126860D01*
X138749000Y-99663140D01*
X138751764Y-99635072D01*
X138758160Y-99613991D01*
X138768548Y-99594555D01*
X138782524Y-99577524D01*
X138799555Y-99563548D01*
X138818991Y-99553160D01*
X138840072Y-99546764D01*
X138868140Y-99544000D01*
X140331860Y-99544000D01*
X140359928Y-99546764D01*
G37*
G36*
X133159928Y-99546764D02*
G01*
X133181009Y-99553160D01*
X133200445Y-99563548D01*
X133217476Y-99577524D01*
X133231452Y-99594555D01*
X133241840Y-99613991D01*
X133248236Y-99635072D01*
X133251000Y-99663140D01*
X133251000Y-100126860D01*
X133248236Y-100154928D01*
X133241840Y-100176009D01*
X133231452Y-100195445D01*
X133217476Y-100212476D01*
X133200445Y-100226452D01*
X133181009Y-100236840D01*
X133159928Y-100243236D01*
X133131860Y-100246000D01*
X131668140Y-100246000D01*
X131640072Y-100243236D01*
X131618991Y-100236840D01*
X131599555Y-100226452D01*
X131582524Y-100212476D01*
X131568548Y-100195445D01*
X131558160Y-100176009D01*
X131551764Y-100154928D01*
X131549000Y-100126860D01*
X131549000Y-99663140D01*
X131551764Y-99635072D01*
X131558160Y-99613991D01*
X131568548Y-99594555D01*
X131582524Y-99577524D01*
X131599555Y-99563548D01*
X131618991Y-99553160D01*
X131640072Y-99546764D01*
X131668140Y-99544000D01*
X133131860Y-99544000D01*
X133159928Y-99546764D01*
G37*
G36*
X125832798Y-96891796D02*
G01*
X125992812Y-96923624D01*
X126156784Y-96991544D01*
X126304354Y-97090147D01*
X126429853Y-97215646D01*
X126528456Y-97363216D01*
X126596376Y-97527188D01*
X126631000Y-97701259D01*
X126631000Y-97878741D01*
X126596376Y-98052812D01*
X126528456Y-98216784D01*
X126429853Y-98364354D01*
X126304354Y-98489853D01*
X126156784Y-98588456D01*
X125992812Y-98656376D01*
X125843512Y-98686073D01*
X125818742Y-98691000D01*
X125641258Y-98691000D01*
X125616488Y-98686073D01*
X125467188Y-98656376D01*
X125303216Y-98588456D01*
X125155646Y-98489853D01*
X125030147Y-98364354D01*
X124931544Y-98216784D01*
X124863624Y-98052812D01*
X124829000Y-97878741D01*
X124829000Y-97701259D01*
X124863624Y-97527188D01*
X124931544Y-97363216D01*
X125030147Y-97215646D01*
X125155646Y-97090147D01*
X125303216Y-96991544D01*
X125467188Y-96923624D01*
X125627202Y-96891796D01*
X125641258Y-96889000D01*
X125818742Y-96889000D01*
X125832798Y-96891796D01*
G37*
G36*
X146152798Y-96891796D02*
G01*
X146312812Y-96923624D01*
X146476784Y-96991544D01*
X146624354Y-97090147D01*
X146749853Y-97215646D01*
X146848456Y-97363216D01*
X146916376Y-97527188D01*
X146951000Y-97701259D01*
X146951000Y-97878741D01*
X146916376Y-98052812D01*
X146848456Y-98216784D01*
X146749853Y-98364354D01*
X146624354Y-98489853D01*
X146476784Y-98588456D01*
X146312812Y-98656376D01*
X146163512Y-98686073D01*
X146138742Y-98691000D01*
X145961258Y-98691000D01*
X145936488Y-98686073D01*
X145787188Y-98656376D01*
X145623216Y-98588456D01*
X145475646Y-98489853D01*
X145350147Y-98364354D01*
X145251544Y-98216784D01*
X145183624Y-98052812D01*
X145149000Y-97878741D01*
X145149000Y-97701259D01*
X145183624Y-97527188D01*
X145251544Y-97363216D01*
X145350147Y-97215646D01*
X145475646Y-97090147D01*
X145623216Y-96991544D01*
X145787188Y-96923624D01*
X145947202Y-96891796D01*
X145961258Y-96889000D01*
X146138742Y-96889000D01*
X146152798Y-96891796D01*
G37*
G36*
X140609999Y-96699737D02*
G01*
X140619608Y-96702652D01*
X140628472Y-96707390D01*
X140636237Y-96713763D01*
X140646448Y-96726206D01*
X140653378Y-96736575D01*
X140670705Y-96753902D01*
X140691080Y-96767515D01*
X140713720Y-96776891D01*
X140737753Y-96781671D01*
X140762257Y-96781670D01*
X140786290Y-96776888D01*
X140808929Y-96767510D01*
X140829302Y-96753895D01*
X140846629Y-96736568D01*
X140853558Y-96726198D01*
X140863763Y-96713763D01*
X140871528Y-96707390D01*
X140880392Y-96702652D01*
X140890001Y-96699737D01*
X140906140Y-96698148D01*
X141393861Y-96698148D01*
X141412199Y-96699954D01*
X141424450Y-96700556D01*
X141442869Y-96700556D01*
X141465149Y-96702750D01*
X141549233Y-96719476D01*
X141570660Y-96725976D01*
X141649858Y-96758780D01*
X141655303Y-96761691D01*
X141655309Y-96761693D01*
X141664169Y-96766429D01*
X141664173Y-96766432D01*
X141669614Y-96769340D01*
X141740899Y-96816971D01*
X141758204Y-96831172D01*
X141818828Y-96891796D01*
X141833029Y-96909101D01*
X141880660Y-96980386D01*
X141883568Y-96985827D01*
X141883571Y-96985831D01*
X141888307Y-96994691D01*
X141888309Y-96994697D01*
X141891220Y-97000142D01*
X141924024Y-97079340D01*
X141930524Y-97100767D01*
X141947250Y-97184851D01*
X141949444Y-97207131D01*
X141949444Y-97225550D01*
X141950046Y-97237801D01*
X141951852Y-97256139D01*
X141951852Y-97743862D01*
X141950046Y-97762199D01*
X141949444Y-97774450D01*
X141949444Y-97792869D01*
X141947250Y-97815149D01*
X141930524Y-97899233D01*
X141924024Y-97920660D01*
X141891220Y-97999858D01*
X141888309Y-98005303D01*
X141888307Y-98005309D01*
X141883571Y-98014169D01*
X141883568Y-98014173D01*
X141880660Y-98019614D01*
X141833029Y-98090899D01*
X141818828Y-98108204D01*
X141758204Y-98168828D01*
X141740899Y-98183029D01*
X141669614Y-98230660D01*
X141664173Y-98233568D01*
X141664169Y-98233571D01*
X141655309Y-98238307D01*
X141655303Y-98238309D01*
X141649858Y-98241220D01*
X141570660Y-98274024D01*
X141549233Y-98280524D01*
X141465149Y-98297250D01*
X141442869Y-98299444D01*
X141424450Y-98299444D01*
X141412199Y-98300046D01*
X141393862Y-98301852D01*
X140906140Y-98301852D01*
X140890001Y-98300263D01*
X140880392Y-98297348D01*
X140871528Y-98292610D01*
X140863763Y-98286237D01*
X140853552Y-98273794D01*
X140846622Y-98263425D01*
X140829295Y-98246098D01*
X140808920Y-98232485D01*
X140786280Y-98223109D01*
X140762247Y-98218329D01*
X140737743Y-98218330D01*
X140713710Y-98223112D01*
X140691071Y-98232490D01*
X140670698Y-98246105D01*
X140653371Y-98263432D01*
X140646442Y-98273802D01*
X140636237Y-98286237D01*
X140628472Y-98292610D01*
X140619608Y-98297348D01*
X140609999Y-98300263D01*
X140593860Y-98301852D01*
X140106138Y-98301852D01*
X140087801Y-98300046D01*
X140075550Y-98299444D01*
X140057131Y-98299444D01*
X140034851Y-98297250D01*
X139950767Y-98280524D01*
X139929340Y-98274024D01*
X139850142Y-98241220D01*
X139844697Y-98238309D01*
X139844691Y-98238307D01*
X139835831Y-98233571D01*
X139835827Y-98233568D01*
X139830386Y-98230660D01*
X139759101Y-98183029D01*
X139741796Y-98168828D01*
X139681172Y-98108204D01*
X139666971Y-98090899D01*
X139619340Y-98019614D01*
X139616432Y-98014173D01*
X139616429Y-98014169D01*
X139611693Y-98005309D01*
X139611691Y-98005303D01*
X139608780Y-97999858D01*
X139575976Y-97920660D01*
X139569476Y-97899233D01*
X139552750Y-97815149D01*
X139550556Y-97792869D01*
X139550556Y-97774450D01*
X139549954Y-97762199D01*
X139548148Y-97743862D01*
X139548148Y-97256139D01*
X139549954Y-97237801D01*
X139550556Y-97225550D01*
X139550556Y-97207131D01*
X139552750Y-97184851D01*
X139569476Y-97100767D01*
X139575976Y-97079340D01*
X139608780Y-97000142D01*
X139611691Y-96994697D01*
X139611693Y-96994691D01*
X139616429Y-96985831D01*
X139616432Y-96985827D01*
X139619340Y-96980386D01*
X139666971Y-96909101D01*
X139681172Y-96891796D01*
X139741796Y-96831172D01*
X139759101Y-96816971D01*
X139830386Y-96769340D01*
X139835827Y-96766432D01*
X139835831Y-96766429D01*
X139844691Y-96761693D01*
X139844697Y-96761691D01*
X139850142Y-96758780D01*
X139929340Y-96725976D01*
X139950767Y-96719476D01*
X140034851Y-96702750D01*
X140057131Y-96700556D01*
X140075550Y-96700556D01*
X140087801Y-96699954D01*
X140106139Y-96698148D01*
X140593860Y-96698148D01*
X140609999Y-96699737D01*
G37*
G36*
X146163512Y-94353927D02*
G01*
X146312812Y-94383624D01*
X146476784Y-94451544D01*
X146624354Y-94550147D01*
X146749853Y-94675646D01*
X146848456Y-94823216D01*
X146916376Y-94987188D01*
X146951000Y-95161259D01*
X146951000Y-95338741D01*
X146916376Y-95512812D01*
X146848456Y-95676784D01*
X146749853Y-95824354D01*
X146624354Y-95949853D01*
X146476784Y-96048456D01*
X146312812Y-96116376D01*
X146163512Y-96146073D01*
X146138742Y-96151000D01*
X145961258Y-96151000D01*
X145936488Y-96146073D01*
X145787188Y-96116376D01*
X145623216Y-96048456D01*
X145475646Y-95949853D01*
X145350147Y-95824354D01*
X145251544Y-95676784D01*
X145183624Y-95512812D01*
X145149000Y-95338741D01*
X145149000Y-95161259D01*
X145183624Y-94987188D01*
X145251544Y-94823216D01*
X145350147Y-94675646D01*
X145475646Y-94550147D01*
X145623216Y-94451544D01*
X145787188Y-94383624D01*
X145936488Y-94353927D01*
X145961258Y-94349000D01*
X146138742Y-94349000D01*
X146163512Y-94353927D01*
G37*
G36*
X125843512Y-94353927D02*
G01*
X125992812Y-94383624D01*
X126156784Y-94451544D01*
X126304354Y-94550147D01*
X126429853Y-94675646D01*
X126528456Y-94823216D01*
X126596376Y-94987188D01*
X126631000Y-95161259D01*
X126631000Y-95338741D01*
X126596376Y-95512812D01*
X126528456Y-95676784D01*
X126429853Y-95824354D01*
X126304354Y-95949853D01*
X126156784Y-96048456D01*
X125992812Y-96116376D01*
X125843512Y-96146073D01*
X125818742Y-96151000D01*
X125641258Y-96151000D01*
X125616488Y-96146073D01*
X125467188Y-96116376D01*
X125303216Y-96048456D01*
X125155646Y-95949853D01*
X125030147Y-95824354D01*
X124931544Y-95676784D01*
X124863624Y-95512812D01*
X124829000Y-95338741D01*
X124829000Y-95161259D01*
X124863624Y-94987188D01*
X124931544Y-94823216D01*
X125030147Y-94675646D01*
X125155646Y-94550147D01*
X125303216Y-94451544D01*
X125467188Y-94383624D01*
X125616488Y-94353927D01*
X125641258Y-94349000D01*
X125818742Y-94349000D01*
X125843512Y-94353927D01*
G37*
G36*
X125843512Y-91813927D02*
G01*
X125992812Y-91843624D01*
X126156784Y-91911544D01*
X126304354Y-92010147D01*
X126429853Y-92135646D01*
X126528456Y-92283216D01*
X126596376Y-92447188D01*
X126631000Y-92621259D01*
X126631000Y-92798741D01*
X126596376Y-92972812D01*
X126528456Y-93136784D01*
X126429853Y-93284354D01*
X126304354Y-93409853D01*
X126156784Y-93508456D01*
X125992812Y-93576376D01*
X125843512Y-93606073D01*
X125818742Y-93611000D01*
X125641258Y-93611000D01*
X125616488Y-93606073D01*
X125467188Y-93576376D01*
X125303216Y-93508456D01*
X125155646Y-93409853D01*
X125030147Y-93284354D01*
X124931544Y-93136784D01*
X124863624Y-92972812D01*
X124829000Y-92798741D01*
X124829000Y-92621259D01*
X124863624Y-92447188D01*
X124931544Y-92283216D01*
X125030147Y-92135646D01*
X125155646Y-92010147D01*
X125303216Y-91911544D01*
X125467188Y-91843624D01*
X125616488Y-91813927D01*
X125641258Y-91809000D01*
X125818742Y-91809000D01*
X125843512Y-91813927D01*
G37*
G36*
X146163512Y-91813927D02*
G01*
X146312812Y-91843624D01*
X146476784Y-91911544D01*
X146624354Y-92010147D01*
X146749853Y-92135646D01*
X146848456Y-92283216D01*
X146916376Y-92447188D01*
X146951000Y-92621259D01*
X146951000Y-92798741D01*
X146916376Y-92972812D01*
X146848456Y-93136784D01*
X146749853Y-93284354D01*
X146624354Y-93409853D01*
X146476784Y-93508456D01*
X146312812Y-93576376D01*
X146163512Y-93606073D01*
X146138742Y-93611000D01*
X145961258Y-93611000D01*
X145936488Y-93606073D01*
X145787188Y-93576376D01*
X145623216Y-93508456D01*
X145475646Y-93409853D01*
X145350147Y-93284354D01*
X145251544Y-93136784D01*
X145183624Y-92972812D01*
X145149000Y-92798741D01*
X145149000Y-92621259D01*
X145183624Y-92447188D01*
X145251544Y-92283216D01*
X145350147Y-92135646D01*
X145475646Y-92010147D01*
X145623216Y-91911544D01*
X145787188Y-91843624D01*
X145936488Y-91813927D01*
X145961258Y-91809000D01*
X146138742Y-91809000D01*
X146163512Y-91813927D01*
G37*
G36*
X135059999Y-91929737D02*
G01*
X135069608Y-91932652D01*
X135078472Y-91937390D01*
X135086237Y-91943763D01*
X135096448Y-91956206D01*
X135103378Y-91966575D01*
X135120705Y-91983902D01*
X135141080Y-91997515D01*
X135163720Y-92006891D01*
X135187753Y-92011671D01*
X135212257Y-92011670D01*
X135236290Y-92006888D01*
X135258929Y-91997510D01*
X135279302Y-91983895D01*
X135296629Y-91966568D01*
X135303558Y-91956198D01*
X135313763Y-91943763D01*
X135321528Y-91937390D01*
X135330392Y-91932652D01*
X135340001Y-91929737D01*
X135356140Y-91928148D01*
X135843861Y-91928148D01*
X135862199Y-91929954D01*
X135874450Y-91930556D01*
X135892869Y-91930556D01*
X135915149Y-91932750D01*
X135999233Y-91949476D01*
X136020660Y-91955976D01*
X136099858Y-91988780D01*
X136105303Y-91991691D01*
X136105309Y-91991693D01*
X136114169Y-91996429D01*
X136114173Y-91996432D01*
X136119614Y-91999340D01*
X136190899Y-92046971D01*
X136208204Y-92061172D01*
X136268828Y-92121796D01*
X136283029Y-92139101D01*
X136330660Y-92210386D01*
X136333568Y-92215827D01*
X136333571Y-92215831D01*
X136338307Y-92224691D01*
X136338309Y-92224697D01*
X136341220Y-92230142D01*
X136374024Y-92309340D01*
X136380524Y-92330767D01*
X136397250Y-92414851D01*
X136399444Y-92437131D01*
X136399444Y-92455550D01*
X136400046Y-92467801D01*
X136401852Y-92486139D01*
X136401852Y-92973862D01*
X136400046Y-92992199D01*
X136399444Y-93004450D01*
X136399444Y-93022869D01*
X136397250Y-93045149D01*
X136380524Y-93129233D01*
X136374024Y-93150660D01*
X136341220Y-93229858D01*
X136338309Y-93235303D01*
X136338307Y-93235309D01*
X136333571Y-93244169D01*
X136333568Y-93244173D01*
X136330660Y-93249614D01*
X136283029Y-93320899D01*
X136268828Y-93338204D01*
X136208204Y-93398828D01*
X136190899Y-93413029D01*
X136119614Y-93460660D01*
X136114173Y-93463568D01*
X136114169Y-93463571D01*
X136105309Y-93468307D01*
X136105303Y-93468309D01*
X136099858Y-93471220D01*
X136020660Y-93504024D01*
X135999233Y-93510524D01*
X135915149Y-93527250D01*
X135892869Y-93529444D01*
X135874450Y-93529444D01*
X135862199Y-93530046D01*
X135843862Y-93531852D01*
X135356140Y-93531852D01*
X135340001Y-93530263D01*
X135330392Y-93527348D01*
X135321528Y-93522610D01*
X135313763Y-93516237D01*
X135303552Y-93503794D01*
X135296622Y-93493425D01*
X135279295Y-93476098D01*
X135258920Y-93462485D01*
X135236280Y-93453109D01*
X135212247Y-93448329D01*
X135187743Y-93448330D01*
X135163710Y-93453112D01*
X135141071Y-93462490D01*
X135120698Y-93476105D01*
X135103371Y-93493432D01*
X135096442Y-93503802D01*
X135086237Y-93516237D01*
X135078472Y-93522610D01*
X135069608Y-93527348D01*
X135059999Y-93530263D01*
X135043860Y-93531852D01*
X134556138Y-93531852D01*
X134537801Y-93530046D01*
X134525550Y-93529444D01*
X134507131Y-93529444D01*
X134484851Y-93527250D01*
X134400767Y-93510524D01*
X134379340Y-93504024D01*
X134300142Y-93471220D01*
X134294697Y-93468309D01*
X134294691Y-93468307D01*
X134285831Y-93463571D01*
X134285827Y-93463568D01*
X134280386Y-93460660D01*
X134209101Y-93413029D01*
X134191796Y-93398828D01*
X134131172Y-93338204D01*
X134116971Y-93320899D01*
X134069340Y-93249614D01*
X134066432Y-93244173D01*
X134066429Y-93244169D01*
X134061693Y-93235309D01*
X134061691Y-93235303D01*
X134058780Y-93229858D01*
X134025976Y-93150660D01*
X134019476Y-93129233D01*
X134002750Y-93045149D01*
X134000556Y-93022869D01*
X134000556Y-93004450D01*
X133999954Y-92992199D01*
X133998148Y-92973862D01*
X133998148Y-92486139D01*
X133999954Y-92467801D01*
X134000556Y-92455550D01*
X134000556Y-92437131D01*
X134002750Y-92414851D01*
X134019476Y-92330767D01*
X134025976Y-92309340D01*
X134058780Y-92230142D01*
X134061691Y-92224697D01*
X134061693Y-92224691D01*
X134066429Y-92215831D01*
X134066432Y-92215827D01*
X134069340Y-92210386D01*
X134116971Y-92139101D01*
X134131172Y-92121796D01*
X134191796Y-92061172D01*
X134209101Y-92046971D01*
X134280386Y-91999340D01*
X134285827Y-91996432D01*
X134285831Y-91996429D01*
X134294691Y-91991693D01*
X134294697Y-91991691D01*
X134300142Y-91988780D01*
X134379340Y-91955976D01*
X134400767Y-91949476D01*
X134484851Y-91932750D01*
X134507131Y-91930556D01*
X134525550Y-91930556D01*
X134537801Y-91929954D01*
X134556139Y-91928148D01*
X135043860Y-91928148D01*
X135059999Y-91929737D01*
G37*
G36*
X146163512Y-89273927D02*
G01*
X146312812Y-89303624D01*
X146476784Y-89371544D01*
X146624354Y-89470147D01*
X146749853Y-89595646D01*
X146848456Y-89743216D01*
X146916376Y-89907188D01*
X146951000Y-90081259D01*
X146951000Y-90258741D01*
X146916376Y-90432812D01*
X146848456Y-90596784D01*
X146749853Y-90744354D01*
X146624354Y-90869853D01*
X146476784Y-90968456D01*
X146312812Y-91036376D01*
X146163512Y-91066073D01*
X146138742Y-91071000D01*
X145961258Y-91071000D01*
X145936488Y-91066073D01*
X145787188Y-91036376D01*
X145623216Y-90968456D01*
X145475646Y-90869853D01*
X145350147Y-90744354D01*
X145251544Y-90596784D01*
X145183624Y-90432812D01*
X145149000Y-90258741D01*
X145149000Y-90081259D01*
X145183624Y-89907188D01*
X145251544Y-89743216D01*
X145350147Y-89595646D01*
X145475646Y-89470147D01*
X145623216Y-89371544D01*
X145787188Y-89303624D01*
X145936488Y-89273927D01*
X145961258Y-89269000D01*
X146138742Y-89269000D01*
X146163512Y-89273927D01*
G37*
G36*
X125843512Y-89273927D02*
G01*
X125992812Y-89303624D01*
X126156784Y-89371544D01*
X126304354Y-89470147D01*
X126429853Y-89595646D01*
X126528456Y-89743216D01*
X126596376Y-89907188D01*
X126631000Y-90081259D01*
X126631000Y-90258741D01*
X126596376Y-90432812D01*
X126528456Y-90596784D01*
X126429853Y-90744354D01*
X126304354Y-90869853D01*
X126156784Y-90968456D01*
X125992812Y-91036376D01*
X125843512Y-91066073D01*
X125818742Y-91071000D01*
X125641258Y-91071000D01*
X125616488Y-91066073D01*
X125467188Y-91036376D01*
X125303216Y-90968456D01*
X125155646Y-90869853D01*
X125030147Y-90744354D01*
X124931544Y-90596784D01*
X124863624Y-90432812D01*
X124829000Y-90258741D01*
X124829000Y-90081259D01*
X124863624Y-89907188D01*
X124931544Y-89743216D01*
X125030147Y-89595646D01*
X125155646Y-89470147D01*
X125303216Y-89371544D01*
X125467188Y-89303624D01*
X125616488Y-89273927D01*
X125641258Y-89269000D01*
X125818742Y-89269000D01*
X125843512Y-89273927D01*
G37*
G36*
X141105199Y-86302954D02*
G01*
X141117450Y-86303556D01*
X141135869Y-86303556D01*
X141158149Y-86305750D01*
X141242233Y-86322476D01*
X141263660Y-86328976D01*
X141342858Y-86361780D01*
X141348303Y-86364691D01*
X141348309Y-86364693D01*
X141357169Y-86369429D01*
X141357173Y-86369432D01*
X141362614Y-86372340D01*
X141433899Y-86419971D01*
X141451204Y-86434172D01*
X141511828Y-86494796D01*
X141526029Y-86512101D01*
X141573660Y-86583386D01*
X141576568Y-86588827D01*
X141576571Y-86588831D01*
X141581307Y-86597691D01*
X141581309Y-86597697D01*
X141584220Y-86603142D01*
X141617024Y-86682340D01*
X141623524Y-86703767D01*
X141640250Y-86787851D01*
X141642444Y-86810131D01*
X141642444Y-86828550D01*
X141643046Y-86840801D01*
X141644852Y-86859139D01*
X141644852Y-87346860D01*
X141643263Y-87362999D01*
X141640348Y-87372608D01*
X141635610Y-87381472D01*
X141629237Y-87389237D01*
X141616794Y-87399448D01*
X141606425Y-87406378D01*
X141589098Y-87423705D01*
X141575485Y-87444080D01*
X141566109Y-87466720D01*
X141561329Y-87490753D01*
X141561330Y-87515257D01*
X141566112Y-87539290D01*
X141575490Y-87561929D01*
X141589105Y-87582302D01*
X141606432Y-87599629D01*
X141616802Y-87606558D01*
X141629237Y-87616763D01*
X141635610Y-87624528D01*
X141640348Y-87633392D01*
X141643263Y-87643001D01*
X141644852Y-87659140D01*
X141644852Y-88146862D01*
X141643046Y-88165199D01*
X141642444Y-88177450D01*
X141642444Y-88195869D01*
X141640250Y-88218149D01*
X141623524Y-88302233D01*
X141617024Y-88323660D01*
X141584220Y-88402858D01*
X141581309Y-88408303D01*
X141581307Y-88408309D01*
X141576571Y-88417169D01*
X141576568Y-88417173D01*
X141573660Y-88422614D01*
X141526029Y-88493899D01*
X141511828Y-88511204D01*
X141451204Y-88571828D01*
X141433899Y-88586029D01*
X141362614Y-88633660D01*
X141357173Y-88636568D01*
X141357169Y-88636571D01*
X141348309Y-88641307D01*
X141348303Y-88641309D01*
X141342858Y-88644220D01*
X141263660Y-88677024D01*
X141242233Y-88683524D01*
X141158149Y-88700250D01*
X141135869Y-88702444D01*
X141117450Y-88702444D01*
X141105199Y-88703046D01*
X141086862Y-88704852D01*
X140599138Y-88704852D01*
X140580801Y-88703046D01*
X140568550Y-88702444D01*
X140550131Y-88702444D01*
X140527851Y-88700250D01*
X140443767Y-88683524D01*
X140422340Y-88677024D01*
X140343142Y-88644220D01*
X140337697Y-88641309D01*
X140337691Y-88641307D01*
X140328831Y-88636571D01*
X140328827Y-88636568D01*
X140323386Y-88633660D01*
X140252101Y-88586029D01*
X140234796Y-88571828D01*
X140174172Y-88511204D01*
X140159971Y-88493899D01*
X140112340Y-88422614D01*
X140109432Y-88417173D01*
X140109429Y-88417169D01*
X140104693Y-88408309D01*
X140104691Y-88408303D01*
X140101780Y-88402858D01*
X140068976Y-88323660D01*
X140062476Y-88302233D01*
X140045750Y-88218149D01*
X140043556Y-88195869D01*
X140043556Y-88177450D01*
X140042954Y-88165199D01*
X140041148Y-88146862D01*
X140041148Y-87659140D01*
X140042737Y-87643001D01*
X140045652Y-87633392D01*
X140050390Y-87624528D01*
X140056763Y-87616763D01*
X140069206Y-87606552D01*
X140079575Y-87599622D01*
X140096902Y-87582295D01*
X140110515Y-87561920D01*
X140119891Y-87539280D01*
X140124671Y-87515247D01*
X140124670Y-87490743D01*
X140119888Y-87466710D01*
X140110510Y-87444071D01*
X140096895Y-87423698D01*
X140079568Y-87406371D01*
X140069198Y-87399442D01*
X140056763Y-87389237D01*
X140050390Y-87381472D01*
X140045652Y-87372608D01*
X140042737Y-87362999D01*
X140041148Y-87346860D01*
X140041148Y-86859139D01*
X140042954Y-86840801D01*
X140043556Y-86828550D01*
X140043556Y-86810131D01*
X140045750Y-86787851D01*
X140062476Y-86703767D01*
X140068976Y-86682340D01*
X140101780Y-86603142D01*
X140104691Y-86597697D01*
X140104693Y-86597691D01*
X140109429Y-86588831D01*
X140109432Y-86588827D01*
X140112340Y-86583386D01*
X140159971Y-86512101D01*
X140174172Y-86494796D01*
X140234796Y-86434172D01*
X140252101Y-86419971D01*
X140323386Y-86372340D01*
X140328827Y-86369432D01*
X140328831Y-86369429D01*
X140337691Y-86364693D01*
X140337697Y-86364691D01*
X140343142Y-86361780D01*
X140422340Y-86328976D01*
X140443767Y-86322476D01*
X140527851Y-86305750D01*
X140550131Y-86303556D01*
X140568550Y-86303556D01*
X140580801Y-86302954D01*
X140599139Y-86301148D01*
X141086861Y-86301148D01*
X141105199Y-86302954D01*
G37*
G36*
X146163512Y-86733927D02*
G01*
X146312812Y-86763624D01*
X146476784Y-86831544D01*
X146624354Y-86930147D01*
X146749853Y-87055646D01*
X146848456Y-87203216D01*
X146916376Y-87367188D01*
X146940952Y-87490743D01*
X146950609Y-87539290D01*
X146951000Y-87541259D01*
X146951000Y-87718741D01*
X146916376Y-87892812D01*
X146848456Y-88056784D01*
X146749853Y-88204354D01*
X146624354Y-88329853D01*
X146476784Y-88428456D01*
X146312812Y-88496376D01*
X146163512Y-88526073D01*
X146138742Y-88531000D01*
X145961258Y-88531000D01*
X145936488Y-88526073D01*
X145787188Y-88496376D01*
X145623216Y-88428456D01*
X145475646Y-88329853D01*
X145350147Y-88204354D01*
X145251544Y-88056784D01*
X145183624Y-87892812D01*
X145149000Y-87718741D01*
X145149000Y-87541259D01*
X145149392Y-87539290D01*
X145159048Y-87490743D01*
X145183624Y-87367188D01*
X145251544Y-87203216D01*
X145350147Y-87055646D01*
X145475646Y-86930147D01*
X145623216Y-86831544D01*
X145787188Y-86763624D01*
X145936488Y-86733927D01*
X145961258Y-86729000D01*
X146138742Y-86729000D01*
X146163512Y-86733927D01*
G37*
G36*
X125843512Y-86733927D02*
G01*
X125992812Y-86763624D01*
X126156784Y-86831544D01*
X126304354Y-86930147D01*
X126429853Y-87055646D01*
X126528456Y-87203216D01*
X126596376Y-87367188D01*
X126620952Y-87490743D01*
X126630609Y-87539290D01*
X126631000Y-87541259D01*
X126631000Y-87718741D01*
X126596376Y-87892812D01*
X126528456Y-88056784D01*
X126429853Y-88204354D01*
X126304354Y-88329853D01*
X126156784Y-88428456D01*
X125992812Y-88496376D01*
X125843512Y-88526073D01*
X125818742Y-88531000D01*
X125641258Y-88531000D01*
X125616488Y-88526073D01*
X125467188Y-88496376D01*
X125303216Y-88428456D01*
X125155646Y-88329853D01*
X125030147Y-88204354D01*
X124931544Y-88056784D01*
X124863624Y-87892812D01*
X124829000Y-87718741D01*
X124829000Y-87541259D01*
X124829392Y-87539290D01*
X124839048Y-87490743D01*
X124863624Y-87367188D01*
X124931544Y-87203216D01*
X125030147Y-87055646D01*
X125155646Y-86930147D01*
X125303216Y-86831544D01*
X125467188Y-86763624D01*
X125616488Y-86733927D01*
X125641258Y-86729000D01*
X125818742Y-86729000D01*
X125843512Y-86733927D01*
G37*
G36*
X136384999Y-85849737D02*
G01*
X136394608Y-85852652D01*
X136403472Y-85857390D01*
X136411237Y-85863763D01*
X136421448Y-85876206D01*
X136428378Y-85886575D01*
X136445705Y-85903902D01*
X136466080Y-85917515D01*
X136488720Y-85926891D01*
X136512753Y-85931671D01*
X136537257Y-85931670D01*
X136561290Y-85926888D01*
X136583929Y-85917510D01*
X136604302Y-85903895D01*
X136621629Y-85886568D01*
X136628558Y-85876198D01*
X136638763Y-85863763D01*
X136646528Y-85857390D01*
X136655392Y-85852652D01*
X136665001Y-85849737D01*
X136681140Y-85848148D01*
X137168861Y-85848148D01*
X137187199Y-85849954D01*
X137199450Y-85850556D01*
X137217869Y-85850556D01*
X137240149Y-85852750D01*
X137324233Y-85869476D01*
X137345660Y-85875976D01*
X137424858Y-85908780D01*
X137430303Y-85911691D01*
X137430309Y-85911693D01*
X137439169Y-85916429D01*
X137439173Y-85916432D01*
X137444614Y-85919340D01*
X137515899Y-85966971D01*
X137533204Y-85981172D01*
X137593828Y-86041796D01*
X137608029Y-86059101D01*
X137655660Y-86130386D01*
X137658568Y-86135827D01*
X137658571Y-86135831D01*
X137663307Y-86144691D01*
X137663309Y-86144697D01*
X137666220Y-86150142D01*
X137699024Y-86229340D01*
X137705524Y-86250767D01*
X137722250Y-86334851D01*
X137724444Y-86357131D01*
X137724444Y-86375550D01*
X137725046Y-86387801D01*
X137726852Y-86406139D01*
X137726852Y-86893862D01*
X137725046Y-86912199D01*
X137724444Y-86924450D01*
X137724444Y-86942869D01*
X137722250Y-86965149D01*
X137705524Y-87049233D01*
X137699024Y-87070660D01*
X137666220Y-87149858D01*
X137663309Y-87155303D01*
X137663307Y-87155309D01*
X137658571Y-87164169D01*
X137658568Y-87164173D01*
X137655660Y-87169614D01*
X137608029Y-87240899D01*
X137593828Y-87258204D01*
X137533204Y-87318828D01*
X137515899Y-87333029D01*
X137444614Y-87380660D01*
X137439173Y-87383568D01*
X137439169Y-87383571D01*
X137430309Y-87388307D01*
X137430303Y-87388309D01*
X137424858Y-87391220D01*
X137345660Y-87424024D01*
X137324233Y-87430524D01*
X137240149Y-87447250D01*
X137217869Y-87449444D01*
X137199450Y-87449444D01*
X137187199Y-87450046D01*
X137168862Y-87451852D01*
X136681140Y-87451852D01*
X136665001Y-87450263D01*
X136655392Y-87447348D01*
X136646528Y-87442610D01*
X136638763Y-87436237D01*
X136628552Y-87423794D01*
X136621622Y-87413425D01*
X136604295Y-87396098D01*
X136583920Y-87382485D01*
X136561280Y-87373109D01*
X136537247Y-87368329D01*
X136512743Y-87368330D01*
X136488710Y-87373112D01*
X136466071Y-87382490D01*
X136445698Y-87396105D01*
X136428371Y-87413432D01*
X136421442Y-87423802D01*
X136411237Y-87436237D01*
X136403472Y-87442610D01*
X136394608Y-87447348D01*
X136384999Y-87450263D01*
X136368860Y-87451852D01*
X135881138Y-87451852D01*
X135862801Y-87450046D01*
X135850550Y-87449444D01*
X135832131Y-87449444D01*
X135809851Y-87447250D01*
X135725767Y-87430524D01*
X135704340Y-87424024D01*
X135625142Y-87391220D01*
X135619697Y-87388309D01*
X135619691Y-87388307D01*
X135610831Y-87383571D01*
X135610827Y-87383568D01*
X135605386Y-87380660D01*
X135534101Y-87333029D01*
X135516796Y-87318828D01*
X135456172Y-87258204D01*
X135441971Y-87240899D01*
X135394340Y-87169614D01*
X135391432Y-87164173D01*
X135391429Y-87164169D01*
X135386693Y-87155309D01*
X135386691Y-87155303D01*
X135383780Y-87149858D01*
X135350976Y-87070660D01*
X135344476Y-87049233D01*
X135327750Y-86965149D01*
X135325556Y-86942869D01*
X135325556Y-86924450D01*
X135324954Y-86912199D01*
X135323148Y-86893862D01*
X135323148Y-86406139D01*
X135324954Y-86387801D01*
X135325556Y-86375550D01*
X135325556Y-86357131D01*
X135327750Y-86334851D01*
X135344476Y-86250767D01*
X135350976Y-86229340D01*
X135383780Y-86150142D01*
X135386691Y-86144697D01*
X135386693Y-86144691D01*
X135391429Y-86135831D01*
X135391432Y-86135827D01*
X135394340Y-86130386D01*
X135441971Y-86059101D01*
X135456172Y-86041796D01*
X135516796Y-85981172D01*
X135534101Y-85966971D01*
X135605386Y-85919340D01*
X135610827Y-85916432D01*
X135610831Y-85916429D01*
X135619691Y-85911693D01*
X135619697Y-85911691D01*
X135625142Y-85908780D01*
X135704340Y-85875976D01*
X135725767Y-85869476D01*
X135809851Y-85852750D01*
X135832131Y-85850556D01*
X135850550Y-85850556D01*
X135862801Y-85849954D01*
X135881139Y-85848148D01*
X136368860Y-85848148D01*
X136384999Y-85849737D01*
G37*
G36*
X125843512Y-84193927D02*
G01*
X125992812Y-84223624D01*
X126156784Y-84291544D01*
X126304354Y-84390147D01*
X126429853Y-84515646D01*
X126528456Y-84663216D01*
X126596376Y-84827188D01*
X126631000Y-85001259D01*
X126631000Y-85178741D01*
X126596376Y-85352812D01*
X126528456Y-85516784D01*
X126429853Y-85664354D01*
X126304354Y-85789853D01*
X126156784Y-85888456D01*
X125992812Y-85956376D01*
X125843512Y-85986073D01*
X125818742Y-85991000D01*
X125641258Y-85991000D01*
X125616488Y-85986073D01*
X125467188Y-85956376D01*
X125303216Y-85888456D01*
X125155646Y-85789853D01*
X125030147Y-85664354D01*
X124931544Y-85516784D01*
X124863624Y-85352812D01*
X124829000Y-85178741D01*
X124829000Y-85001259D01*
X124863624Y-84827188D01*
X124931544Y-84663216D01*
X125030147Y-84515646D01*
X125155646Y-84390147D01*
X125303216Y-84291544D01*
X125467188Y-84223624D01*
X125616488Y-84193927D01*
X125641258Y-84189000D01*
X125818742Y-84189000D01*
X125843512Y-84193927D01*
G37*
G36*
X146163512Y-84193927D02*
G01*
X146312812Y-84223624D01*
X146476784Y-84291544D01*
X146624354Y-84390147D01*
X146749853Y-84515646D01*
X146848456Y-84663216D01*
X146916376Y-84827188D01*
X146951000Y-85001259D01*
X146951000Y-85178741D01*
X146916376Y-85352812D01*
X146848456Y-85516784D01*
X146749853Y-85664354D01*
X146624354Y-85789853D01*
X146476784Y-85888456D01*
X146312812Y-85956376D01*
X146163512Y-85986073D01*
X146138742Y-85991000D01*
X145961258Y-85991000D01*
X145936488Y-85986073D01*
X145787188Y-85956376D01*
X145623216Y-85888456D01*
X145475646Y-85789853D01*
X145350147Y-85664354D01*
X145251544Y-85516784D01*
X145183624Y-85352812D01*
X145149000Y-85178741D01*
X145149000Y-85001259D01*
X145183624Y-84827188D01*
X145251544Y-84663216D01*
X145350147Y-84515646D01*
X145475646Y-84390147D01*
X145623216Y-84291544D01*
X145787188Y-84223624D01*
X145936488Y-84193927D01*
X145961258Y-84189000D01*
X146138742Y-84189000D01*
X146163512Y-84193927D01*
G37*
G36*
X125843512Y-81653927D02*
G01*
X125992812Y-81683624D01*
X126156784Y-81751544D01*
X126304354Y-81850147D01*
X126429853Y-81975646D01*
X126528456Y-82123216D01*
X126596376Y-82287188D01*
X126631000Y-82461259D01*
X126631000Y-82638741D01*
X126596376Y-82812812D01*
X126528456Y-82976784D01*
X126429853Y-83124354D01*
X126304354Y-83249853D01*
X126156784Y-83348456D01*
X125992812Y-83416376D01*
X125843512Y-83446073D01*
X125818742Y-83451000D01*
X125641258Y-83451000D01*
X125616488Y-83446073D01*
X125467188Y-83416376D01*
X125303216Y-83348456D01*
X125155646Y-83249853D01*
X125030147Y-83124354D01*
X124931544Y-82976784D01*
X124863624Y-82812812D01*
X124829000Y-82638741D01*
X124829000Y-82461259D01*
X124863624Y-82287188D01*
X124931544Y-82123216D01*
X125030147Y-81975646D01*
X125155646Y-81850147D01*
X125303216Y-81751544D01*
X125467188Y-81683624D01*
X125616488Y-81653927D01*
X125641258Y-81649000D01*
X125818742Y-81649000D01*
X125843512Y-81653927D01*
G37*
G36*
X142806000Y-82453000D02*
G01*
X140404000Y-82453000D01*
X140404000Y-80951000D01*
X142806000Y-80951000D01*
X142806000Y-82453000D01*
G37*
G36*
X125843512Y-79113927D02*
G01*
X125992812Y-79143624D01*
X126156784Y-79211544D01*
X126304354Y-79310147D01*
X126429853Y-79435646D01*
X126528456Y-79583216D01*
X126596376Y-79747188D01*
X126631000Y-79921259D01*
X126631000Y-80098741D01*
X126596376Y-80272812D01*
X126528456Y-80436784D01*
X126429853Y-80584354D01*
X126304354Y-80709853D01*
X126156784Y-80808456D01*
X125992812Y-80876376D01*
X125843512Y-80906073D01*
X125818742Y-80911000D01*
X125641258Y-80911000D01*
X125616488Y-80906073D01*
X125467188Y-80876376D01*
X125303216Y-80808456D01*
X125155646Y-80709853D01*
X125030147Y-80584354D01*
X124931544Y-80436784D01*
X124863624Y-80272812D01*
X124829000Y-80098741D01*
X124829000Y-79921259D01*
X124863624Y-79747188D01*
X124931544Y-79583216D01*
X125030147Y-79435646D01*
X125155646Y-79310147D01*
X125303216Y-79211544D01*
X125467188Y-79143624D01*
X125616488Y-79113927D01*
X125641258Y-79109000D01*
X125818742Y-79109000D01*
X125843512Y-79113927D01*
G37*
G36*
X144143591Y-79805085D02*
G01*
X144177569Y-79815393D01*
X144208890Y-79832134D01*
X144236339Y-79854661D01*
X144258866Y-79882110D01*
X144275607Y-79913431D01*
X144285915Y-79947409D01*
X144290000Y-79988890D01*
X144290000Y-80590110D01*
X144285915Y-80631591D01*
X144275607Y-80665569D01*
X144258866Y-80696890D01*
X144236339Y-80724339D01*
X144208890Y-80746866D01*
X144177569Y-80763607D01*
X144143591Y-80773915D01*
X144102110Y-80778000D01*
X143425890Y-80778000D01*
X143384409Y-80773915D01*
X143350431Y-80763607D01*
X143319110Y-80746866D01*
X143291661Y-80724339D01*
X143269134Y-80696890D01*
X143252393Y-80665569D01*
X143242085Y-80631591D01*
X143238000Y-80590110D01*
X143238000Y-79988890D01*
X143242085Y-79947409D01*
X143252393Y-79913431D01*
X143269134Y-79882110D01*
X143291661Y-79854661D01*
X143319110Y-79832134D01*
X143350431Y-79815393D01*
X143384409Y-79805085D01*
X143425890Y-79801000D01*
X144102110Y-79801000D01*
X144143591Y-79805085D01*
G37*
G36*
X144143591Y-78230085D02*
G01*
X144177569Y-78240393D01*
X144208890Y-78257134D01*
X144236339Y-78279661D01*
X144258866Y-78307110D01*
X144275607Y-78338431D01*
X144285915Y-78372409D01*
X144290000Y-78413890D01*
X144290000Y-79015110D01*
X144285915Y-79056591D01*
X144275607Y-79090569D01*
X144258866Y-79121890D01*
X144236339Y-79149339D01*
X144208890Y-79171866D01*
X144177569Y-79188607D01*
X144143591Y-79198915D01*
X144102110Y-79203000D01*
X143425890Y-79203000D01*
X143384409Y-79198915D01*
X143350431Y-79188607D01*
X143319110Y-79171866D01*
X143291661Y-79149339D01*
X143269134Y-79121890D01*
X143252393Y-79090569D01*
X143242085Y-79056591D01*
X143238000Y-79015110D01*
X143238000Y-78413890D01*
X143242085Y-78372409D01*
X143252393Y-78338431D01*
X143269134Y-78307110D01*
X143291661Y-78279661D01*
X143319110Y-78257134D01*
X143350431Y-78240393D01*
X143384409Y-78230085D01*
X143425890Y-78226000D01*
X144102110Y-78226000D01*
X144143591Y-78230085D01*
G37*
G36*
X134913000Y-78589000D02*
G01*
X133311000Y-78589000D01*
X133311000Y-74887000D01*
X134913000Y-74887000D01*
X134913000Y-78589000D01*
G37*
G36*
X138469000Y-78559000D02*
G01*
X136867000Y-78559000D01*
X136867000Y-74857000D01*
X138469000Y-74857000D01*
X138469000Y-78559000D01*
G37*
G36*
X125843512Y-76573927D02*
G01*
X125992812Y-76603624D01*
X126156784Y-76671544D01*
X126304354Y-76770147D01*
X126429853Y-76895646D01*
X126528456Y-77043216D01*
X126596376Y-77207188D01*
X126631000Y-77381259D01*
X126631000Y-77558741D01*
X126596376Y-77732812D01*
X126528456Y-77896784D01*
X126429853Y-78044354D01*
X126304354Y-78169853D01*
X126156784Y-78268456D01*
X125992812Y-78336376D01*
X125843512Y-78366073D01*
X125818742Y-78371000D01*
X125641258Y-78371000D01*
X125616488Y-78366073D01*
X125467188Y-78336376D01*
X125303216Y-78268456D01*
X125155646Y-78169853D01*
X125030147Y-78044354D01*
X124931544Y-77896784D01*
X124863624Y-77732812D01*
X124829000Y-77558741D01*
X124829000Y-77381259D01*
X124863624Y-77207188D01*
X124931544Y-77043216D01*
X125030147Y-76895646D01*
X125155646Y-76770147D01*
X125303216Y-76671544D01*
X125467188Y-76603624D01*
X125616488Y-76573927D01*
X125641258Y-76569000D01*
X125818742Y-76569000D01*
X125843512Y-76573927D01*
G37*
G36*
X142806000Y-78053000D02*
G01*
X140404000Y-78053000D01*
X140404000Y-76551000D01*
X142806000Y-76551000D01*
X142806000Y-78053000D01*
G37*
G36*
X128459999Y-75074737D02*
G01*
X128469608Y-75077652D01*
X128478472Y-75082390D01*
X128486237Y-75088763D01*
X128496448Y-75101206D01*
X128503378Y-75111575D01*
X128520705Y-75128902D01*
X128541080Y-75142515D01*
X128563720Y-75151891D01*
X128587753Y-75156671D01*
X128612257Y-75156670D01*
X128636290Y-75151888D01*
X128658929Y-75142510D01*
X128679302Y-75128895D01*
X128696629Y-75111568D01*
X128703558Y-75101198D01*
X128713763Y-75088763D01*
X128721528Y-75082390D01*
X128730392Y-75077652D01*
X128740001Y-75074737D01*
X128756140Y-75073148D01*
X129243861Y-75073148D01*
X129262199Y-75074954D01*
X129274450Y-75075556D01*
X129292869Y-75075556D01*
X129315149Y-75077750D01*
X129399233Y-75094476D01*
X129420660Y-75100976D01*
X129499858Y-75133780D01*
X129505303Y-75136691D01*
X129505309Y-75136693D01*
X129514169Y-75141429D01*
X129514173Y-75141432D01*
X129519614Y-75144340D01*
X129590899Y-75191971D01*
X129608204Y-75206172D01*
X129668828Y-75266796D01*
X129683029Y-75284101D01*
X129730660Y-75355386D01*
X129733568Y-75360827D01*
X129733571Y-75360831D01*
X129738307Y-75369691D01*
X129738309Y-75369697D01*
X129741220Y-75375142D01*
X129774024Y-75454340D01*
X129780524Y-75475767D01*
X129797250Y-75559851D01*
X129799444Y-75582131D01*
X129799444Y-75600550D01*
X129800046Y-75612801D01*
X129801852Y-75631139D01*
X129801852Y-76118862D01*
X129800046Y-76137199D01*
X129799444Y-76149450D01*
X129799444Y-76167869D01*
X129797250Y-76190149D01*
X129780524Y-76274233D01*
X129774024Y-76295660D01*
X129741220Y-76374858D01*
X129738309Y-76380303D01*
X129738307Y-76380309D01*
X129733571Y-76389169D01*
X129733568Y-76389173D01*
X129730660Y-76394614D01*
X129683029Y-76465899D01*
X129668828Y-76483204D01*
X129608204Y-76543828D01*
X129590899Y-76558029D01*
X129519614Y-76605660D01*
X129514173Y-76608568D01*
X129514169Y-76608571D01*
X129505309Y-76613307D01*
X129505303Y-76613309D01*
X129499858Y-76616220D01*
X129420660Y-76649024D01*
X129399233Y-76655524D01*
X129315149Y-76672250D01*
X129292869Y-76674444D01*
X129274450Y-76674444D01*
X129262199Y-76675046D01*
X129243862Y-76676852D01*
X128756140Y-76676852D01*
X128740001Y-76675263D01*
X128730392Y-76672348D01*
X128721528Y-76667610D01*
X128713763Y-76661237D01*
X128703552Y-76648794D01*
X128696622Y-76638425D01*
X128679295Y-76621098D01*
X128658920Y-76607485D01*
X128636280Y-76598109D01*
X128612247Y-76593329D01*
X128587743Y-76593330D01*
X128563710Y-76598112D01*
X128541071Y-76607490D01*
X128520698Y-76621105D01*
X128503371Y-76638432D01*
X128496442Y-76648802D01*
X128486237Y-76661237D01*
X128478472Y-76667610D01*
X128469608Y-76672348D01*
X128459999Y-76675263D01*
X128443860Y-76676852D01*
X127956138Y-76676852D01*
X127937801Y-76675046D01*
X127925550Y-76674444D01*
X127907131Y-76674444D01*
X127884851Y-76672250D01*
X127800767Y-76655524D01*
X127779340Y-76649024D01*
X127700142Y-76616220D01*
X127694697Y-76613309D01*
X127694691Y-76613307D01*
X127685831Y-76608571D01*
X127685827Y-76608568D01*
X127680386Y-76605660D01*
X127609101Y-76558029D01*
X127591796Y-76543828D01*
X127531172Y-76483204D01*
X127516971Y-76465899D01*
X127469340Y-76394614D01*
X127466432Y-76389173D01*
X127466429Y-76389169D01*
X127461693Y-76380309D01*
X127461691Y-76380303D01*
X127458780Y-76374858D01*
X127425976Y-76295660D01*
X127419476Y-76274233D01*
X127402750Y-76190149D01*
X127400556Y-76167869D01*
X127400556Y-76149450D01*
X127399954Y-76137199D01*
X127398148Y-76118862D01*
X127398148Y-75631139D01*
X127399954Y-75612801D01*
X127400556Y-75600550D01*
X127400556Y-75582131D01*
X127402750Y-75559851D01*
X127419476Y-75475767D01*
X127425976Y-75454340D01*
X127458780Y-75375142D01*
X127461691Y-75369697D01*
X127461693Y-75369691D01*
X127466429Y-75360831D01*
X127466432Y-75360827D01*
X127469340Y-75355386D01*
X127516971Y-75284101D01*
X127531172Y-75266796D01*
X127591796Y-75206172D01*
X127609101Y-75191971D01*
X127680386Y-75144340D01*
X127685827Y-75141432D01*
X127685831Y-75141429D01*
X127694691Y-75136693D01*
X127694697Y-75136691D01*
X127700142Y-75133780D01*
X127779340Y-75100976D01*
X127800767Y-75094476D01*
X127884851Y-75077750D01*
X127907131Y-75075556D01*
X127925550Y-75075556D01*
X127937801Y-75074954D01*
X127956139Y-75073148D01*
X128443860Y-75073148D01*
X128459999Y-75074737D01*
G37*
G36*
X125843512Y-74033927D02*
G01*
X125992812Y-74063624D01*
X126156784Y-74131544D01*
X126304354Y-74230147D01*
X126429853Y-74355646D01*
X126528456Y-74503216D01*
X126596376Y-74667188D01*
X126631000Y-74841259D01*
X126631000Y-75018741D01*
X126596376Y-75192812D01*
X126528456Y-75356784D01*
X126429853Y-75504354D01*
X126304354Y-75629853D01*
X126156784Y-75728456D01*
X125992812Y-75796376D01*
X125843512Y-75826073D01*
X125818742Y-75831000D01*
X125641258Y-75831000D01*
X125616488Y-75826073D01*
X125467188Y-75796376D01*
X125303216Y-75728456D01*
X125155646Y-75629853D01*
X125030147Y-75504354D01*
X124931544Y-75356784D01*
X124863624Y-75192812D01*
X124829000Y-75018741D01*
X124829000Y-74841259D01*
X124863624Y-74667188D01*
X124931544Y-74503216D01*
X125030147Y-74355646D01*
X125155646Y-74230147D01*
X125303216Y-74131544D01*
X125467188Y-74063624D01*
X125616488Y-74033927D01*
X125641258Y-74029000D01*
X125818742Y-74029000D01*
X125843512Y-74033927D01*
G37*
G36*
X140308213Y-72768249D02*
G01*
X140402652Y-72796897D01*
X140489687Y-72843418D01*
X140565975Y-72906025D01*
X140628582Y-72982313D01*
X140675103Y-73069348D01*
X140703751Y-73163787D01*
X140711000Y-73237388D01*
X140711000Y-74386612D01*
X140703751Y-74460213D01*
X140675103Y-74554652D01*
X140628582Y-74641687D01*
X140565975Y-74717975D01*
X140489687Y-74780582D01*
X140402651Y-74827103D01*
X140308212Y-74855751D01*
X140210000Y-74865424D01*
X140111787Y-74855751D01*
X140017348Y-74827103D01*
X139930313Y-74780582D01*
X139854025Y-74717975D01*
X139791418Y-74641687D01*
X139744897Y-74554651D01*
X139716249Y-74460212D01*
X139709000Y-74386611D01*
X139709001Y-73237388D01*
X139716250Y-73163787D01*
X139744898Y-73069348D01*
X139791419Y-72982313D01*
X139854026Y-72906025D01*
X139930314Y-72843418D01*
X140017349Y-72796897D01*
X140111788Y-72768249D01*
X140210000Y-72758576D01*
X140308213Y-72768249D01*
G37*
G36*
X131668213Y-72768249D02*
G01*
X131762652Y-72796897D01*
X131849687Y-72843418D01*
X131925975Y-72906025D01*
X131988582Y-72982313D01*
X132035103Y-73069348D01*
X132063751Y-73163787D01*
X132071000Y-73237388D01*
X132071000Y-74386612D01*
X132063751Y-74460213D01*
X132035103Y-74554652D01*
X131988582Y-74641687D01*
X131925975Y-74717975D01*
X131849687Y-74780582D01*
X131762651Y-74827103D01*
X131668212Y-74855751D01*
X131570000Y-74865424D01*
X131471787Y-74855751D01*
X131377348Y-74827103D01*
X131290313Y-74780582D01*
X131214025Y-74717975D01*
X131151418Y-74641687D01*
X131104897Y-74554651D01*
X131076249Y-74460212D01*
X131069000Y-74386611D01*
X131069001Y-73237388D01*
X131076250Y-73163787D01*
X131104898Y-73069348D01*
X131151419Y-72982313D01*
X131214026Y-72906025D01*
X131290314Y-72843418D01*
X131377349Y-72796897D01*
X131471788Y-72768249D01*
X131570000Y-72758576D01*
X131668213Y-72768249D01*
G37*
G36*
X133102383Y-72994489D02*
G01*
X133102386Y-72994490D01*
X133102385Y-72994490D01*
X133166258Y-73020946D01*
X133223748Y-73059360D01*
X133272640Y-73108252D01*
X133311054Y-73165742D01*
X133332624Y-73217818D01*
X133337511Y-73229617D01*
X133351000Y-73297430D01*
X133351000Y-73366570D01*
X133337511Y-73434383D01*
X133337510Y-73434385D01*
X133311054Y-73498258D01*
X133272640Y-73555748D01*
X133223748Y-73604640D01*
X133166258Y-73643054D01*
X133114182Y-73664624D01*
X133102383Y-73669511D01*
X133034570Y-73683000D01*
X132965430Y-73683000D01*
X132897617Y-73669511D01*
X132885818Y-73664624D01*
X132833742Y-73643054D01*
X132776252Y-73604640D01*
X132727360Y-73555748D01*
X132688946Y-73498258D01*
X132662490Y-73434385D01*
X132662489Y-73434383D01*
X132649000Y-73366570D01*
X132649000Y-73297430D01*
X132662489Y-73229617D01*
X132667376Y-73217818D01*
X132688946Y-73165742D01*
X132727360Y-73108252D01*
X132776252Y-73059360D01*
X132833742Y-73020946D01*
X132897615Y-72994490D01*
X132897614Y-72994490D01*
X132897617Y-72994489D01*
X132965430Y-72981000D01*
X133034570Y-72981000D01*
X133102383Y-72994489D01*
G37*
G36*
X138882383Y-72994489D02*
G01*
X138882386Y-72994490D01*
X138882385Y-72994490D01*
X138946258Y-73020946D01*
X139003748Y-73059360D01*
X139052640Y-73108252D01*
X139091054Y-73165742D01*
X139112624Y-73217818D01*
X139117511Y-73229617D01*
X139131000Y-73297430D01*
X139131000Y-73366570D01*
X139117511Y-73434383D01*
X139117510Y-73434385D01*
X139091054Y-73498258D01*
X139052640Y-73555748D01*
X139003748Y-73604640D01*
X138946258Y-73643054D01*
X138894182Y-73664624D01*
X138882383Y-73669511D01*
X138814570Y-73683000D01*
X138745430Y-73683000D01*
X138677617Y-73669511D01*
X138665818Y-73664624D01*
X138613742Y-73643054D01*
X138556252Y-73604640D01*
X138507360Y-73555748D01*
X138468946Y-73498258D01*
X138442490Y-73434385D01*
X138442489Y-73434383D01*
X138429000Y-73366570D01*
X138429000Y-73297430D01*
X138442489Y-73229617D01*
X138447376Y-73217818D01*
X138468946Y-73165742D01*
X138507360Y-73108252D01*
X138556252Y-73059360D01*
X138613742Y-73020946D01*
X138677615Y-72994490D01*
X138677614Y-72994490D01*
X138677617Y-72994489D01*
X138745430Y-72981000D01*
X138814570Y-72981000D01*
X138882383Y-72994489D01*
G37*
G36*
X127477932Y-69544466D02*
G01*
X127776119Y-69667979D01*
X127776121Y-69667980D01*
X128044483Y-69847294D01*
X128272706Y-70075517D01*
X128452020Y-70343879D01*
X128452021Y-70343881D01*
X128575534Y-70642068D01*
X128638500Y-70958620D01*
X128638500Y-71281380D01*
X128575534Y-71597932D01*
X128452021Y-71896119D01*
X128452020Y-71896121D01*
X128272706Y-72164483D01*
X128044483Y-72392706D01*
X127776121Y-72572020D01*
X127776120Y-72572021D01*
X127776119Y-72572021D01*
X127477932Y-72695534D01*
X127161380Y-72758500D01*
X126838620Y-72758500D01*
X126522068Y-72695534D01*
X126223881Y-72572021D01*
X126223880Y-72572021D01*
X126223879Y-72572020D01*
X125955517Y-72392706D01*
X125727294Y-72164483D01*
X125547980Y-71896121D01*
X125547979Y-71896119D01*
X125424466Y-71597932D01*
X125361500Y-71281380D01*
X125361500Y-70958620D01*
X125424466Y-70642068D01*
X125547979Y-70343881D01*
X125547980Y-70343879D01*
X125727294Y-70075517D01*
X125955517Y-69847294D01*
X126223879Y-69667980D01*
X126223881Y-69667979D01*
X126522068Y-69544466D01*
X126838620Y-69481500D01*
X127161380Y-69481500D01*
X127477932Y-69544466D01*
G37*
G36*
X145257932Y-69544466D02*
G01*
X145556119Y-69667979D01*
X145556121Y-69667980D01*
X145824483Y-69847294D01*
X146052706Y-70075517D01*
X146232020Y-70343879D01*
X146232021Y-70343881D01*
X146355534Y-70642068D01*
X146418500Y-70958620D01*
X146418500Y-71281380D01*
X146355534Y-71597932D01*
X146232021Y-71896119D01*
X146232020Y-71896121D01*
X146052706Y-72164483D01*
X145824483Y-72392706D01*
X145556121Y-72572020D01*
X145556120Y-72572021D01*
X145556119Y-72572021D01*
X145257932Y-72695534D01*
X144941380Y-72758500D01*
X144618620Y-72758500D01*
X144302068Y-72695534D01*
X144003881Y-72572021D01*
X144003880Y-72572021D01*
X144003879Y-72572020D01*
X143735517Y-72392706D01*
X143507294Y-72164483D01*
X143327980Y-71896121D01*
X143327979Y-71896119D01*
X143204466Y-71597932D01*
X143141500Y-71281380D01*
X143141500Y-70958620D01*
X143204466Y-70642068D01*
X143327979Y-70343881D01*
X143327980Y-70343879D01*
X143507294Y-70075517D01*
X143735517Y-69847294D01*
X144003879Y-69667980D01*
X144003881Y-69667979D01*
X144302068Y-69544466D01*
X144618620Y-69481500D01*
X144941380Y-69481500D01*
X145257932Y-69544466D01*
G37*
G36*
X131668213Y-68748249D02*
G01*
X131762652Y-68776897D01*
X131849687Y-68823418D01*
X131925975Y-68886025D01*
X131988582Y-68962313D01*
X132035103Y-69049348D01*
X132063751Y-69143787D01*
X132071000Y-69217388D01*
X132071000Y-70066612D01*
X132063751Y-70140213D01*
X132035103Y-70234652D01*
X131988582Y-70321687D01*
X131925975Y-70397975D01*
X131849687Y-70460582D01*
X131762651Y-70507103D01*
X131668212Y-70535751D01*
X131570000Y-70545424D01*
X131471787Y-70535751D01*
X131377348Y-70507103D01*
X131290313Y-70460582D01*
X131214025Y-70397975D01*
X131151418Y-70321687D01*
X131104897Y-70234651D01*
X131076249Y-70140212D01*
X131069000Y-70066611D01*
X131069000Y-69217398D01*
X131076250Y-69143786D01*
X131086846Y-69108856D01*
X131104898Y-69049348D01*
X131151419Y-68962313D01*
X131214026Y-68886025D01*
X131290314Y-68823418D01*
X131377349Y-68776897D01*
X131471788Y-68748249D01*
X131570000Y-68738576D01*
X131668213Y-68748249D01*
G37*
G36*
X140308213Y-68748249D02*
G01*
X140402652Y-68776897D01*
X140489687Y-68823418D01*
X140565975Y-68886025D01*
X140628582Y-68962313D01*
X140675103Y-69049348D01*
X140703751Y-69143787D01*
X140711000Y-69217388D01*
X140711000Y-70066612D01*
X140703751Y-70140213D01*
X140675103Y-70234652D01*
X140628582Y-70321687D01*
X140565975Y-70397975D01*
X140489687Y-70460582D01*
X140402651Y-70507103D01*
X140308212Y-70535751D01*
X140210000Y-70545424D01*
X140111787Y-70535751D01*
X140017348Y-70507103D01*
X139930313Y-70460582D01*
X139854025Y-70397975D01*
X139791418Y-70321687D01*
X139744897Y-70234651D01*
X139716249Y-70140212D01*
X139709000Y-70066611D01*
X139709000Y-69217398D01*
X139716250Y-69143786D01*
X139726846Y-69108856D01*
X139744898Y-69049348D01*
X139791419Y-68962313D01*
X139854026Y-68886025D01*
X139930314Y-68823418D01*
X140017349Y-68776897D01*
X140111788Y-68748249D01*
X140210000Y-68738576D01*
X140308213Y-68748249D01*
G37*
M02*
